<?xml version="1.0" encoding="UTF-8" standalone="no"?>
<svg
   xmlns:dc="http://purl.org/dc/elements/1.1/"
   xmlns:cc="http://creativecommons.org/ns#"
   xmlns:rdf="http://www.w3.org/1999/02/22-rdf-syntax-ns#"
   xmlns:svg="http://www.w3.org/2000/svg"
   xmlns="http://www.w3.org/2000/svg"
   xmlns:sodipodi="http://sodipodi.sourceforge.net/DTD/sodipodi-0.dtd"
   xmlns:inkscape="http://www.inkscape.org/namespaces/inkscape"
   sodipodi:docname="logoETVIZobject.svg"
   inkscape:version="1.0 (4035a4fb49, 2020-05-01)"
   id="svg8"
   version="1.1"
   viewBox="0 0 31.618233 32.66751"
   height="32.667511mm"
   width="31.618235mm">
  <defs
     id="defs2" />
  <sodipodi:namedview
     inkscape:window-maximized="1"
     inkscape:window-y="22"
     inkscape:window-x="0"
     inkscape:window-height="1058"
     inkscape:window-width="1920"
     fit-margin-bottom="2"
     fit-margin-right="2"
     fit-margin-left="2"
     fit-margin-top="2"
     showgrid="false"
     inkscape:document-rotation="0"
     inkscape:current-layer="layer1"
     inkscape:document-units="mm"
     inkscape:cy="71.257219"
     inkscape:cx="134.48278"
     inkscape:zoom="2.8"
     inkscape:pageshadow="2"
     inkscape:pageopacity="0.0"
     borderopacity="1.0"
     bordercolor="#666666"
     pagecolor="#ffffff"
     id="base" />
  <metadata
     id="metadata5">
    <rdf:RDF>
      <cc:Work
         rdf:about="">
        <dc:format>image/svg+xml</dc:format>
        <dc:type
           rdf:resource="http://purl.org/dc/dcmitype/StillImage" />
        <dc:title></dc:title>
      </cc:Work>
    </rdf:RDF>
  </metadata>
  <g
     transform="translate(-38.677361,-119.38245)"
     id="layer1"
     inkscape:groupmode="layer"
     inkscape:label="Layer 1">
    <g
       id="g865"
       transform="translate(0.08698046)">
      <g
         style="font-style:normal;font-variant:normal;font-weight:normal;font-stretch:normal;font-size:11.2889px;line-height:1.25;font-family:Helvetica;-inkscape-font-specification:Helvetica;letter-spacing:0px;word-spacing:0px;stroke-width:0.264583"
         id="text844"
         aria-label="ETViz">
        <path
           id="path1157"
           style="font-style:normal;font-variant:normal;font-weight:normal;font-stretch:normal;font-size:11.2889px;font-family:Lato;-inkscape-font-specification:Lato;stroke-width:0.264583"
           d="m 45.57443,134.92313 v 0.89182 h -3.883382 v 2.68676 h 3.143959 v 0.85796 h -3.143959 v 2.76013 h 3.883382 v 0.89183 h -4.98405 v -8.0885 z" />
        <path
           id="path1159"
           style="font-style:normal;font-variant:normal;font-weight:normal;font-stretch:normal;font-size:11.2889px;font-family:Lato;-inkscape-font-specification:Lato;stroke-width:0.264583"
           d="m 52.658208,134.92313 v 0.92005 h -2.613381 v 7.16845 h -1.095023 v -7.16845 h -2.624669 v -0.92005 z" />
        <path
           id="path1161"
           style="font-style:normal;font-variant:normal;font-weight:normal;font-stretch:normal;font-size:11.2889px;font-family:Lato;-inkscape-font-specification:Lato;stroke-width:0.264583"
           d="m 52.872677,134.92313 h 0.87489 q 0.146755,0 0.237067,0.0734 0.09031,0.0734 0.135466,0.18626 l 2.286003,5.70654 q 0.07902,0.19192 0.141111,0.41769 0.06773,0.22578 0.129822,0.46849 0.0508,-0.24271 0.107245,-0.46849 0.06209,-0.22577 0.141111,-0.41769 l 2.274714,-5.70654 q 0.03951,-0.096 0.135466,-0.17497 0.09596,-0.0847 0.237067,-0.0847 h 0.880535 l -3.296359,8.0885 h -0.987779 z" />
        <path
           id="path1163"
           style="font-style:normal;font-variant:normal;font-weight:normal;font-stretch:normal;font-size:11.2889px;font-family:Lato;-inkscape-font-specification:Lato;stroke-width:0.264583"
           d="m 62.445647,137.2938 v 5.71783 h -1.004712 v -5.71783 z m 0.225778,-1.79494 q 0,0.14676 -0.06209,0.27658 -0.05644,0.12418 -0.158045,0.22578 -0.09595,0.096 -0.225778,0.1524 -0.129822,0.0564 -0.276578,0.0564 -0.146756,0 -0.276578,-0.0564 -0.124178,-0.0564 -0.225778,-0.1524 -0.09596,-0.1016 -0.1524,-0.22578 -0.05644,-0.12982 -0.05644,-0.27658 0,-0.14675 0.05644,-0.27657 0.05644,-0.13547 0.1524,-0.23143 0.1016,-0.1016 0.225778,-0.15804 0.129822,-0.0565 0.276578,-0.0565 0.146756,0 0.276578,0.0565 0.129823,0.0564 0.225778,0.15804 0.1016,0.096 0.158045,0.23143 0.06209,0.12982 0.06209,0.27657 z" />
        <path
           id="path1165"
           style="font-style:normal;font-variant:normal;font-weight:normal;font-stretch:normal;font-size:11.2889px;font-family:Lato;-inkscape-font-specification:Lato;stroke-width:0.264583"
           d="m 68.208614,137.72278 q 0,0.10724 -0.03951,0.20884 -0.03951,0.096 -0.1016,0.17498 l -3.093159,4.12045 h 3.121381 v 0.78458 H 63.78901 v -0.41769 q 0,-0.0734 0.03387,-0.16934 0.03951,-0.1016 0.107245,-0.19191 l 3.110092,-4.14867 h -3.076226 v -0.79022 h 4.244627 z" />
      </g>
      <path
         style="clip-rule:evenodd;stroke-width:0.0264583;image-rendering:optimizeQuality;shape-rendering:geometricPrecision;text-rendering:geometricPrecision"
         fill-rule="nonzero"
         d="m 59.124241,122.8728 c 1.450975,0.97721 2.701607,2.39379 3.649741,4.11474 l 0.09218,0.16749 -0.09218,0.16721 c -0.948134,1.72096 -2.198766,3.13754 -3.649741,4.11475 -1.415335,0.95282 -3.020986,1.49032 -4.725061,1.49032 -1.703467,0 -3.309408,-0.5375 -4.724426,-1.49032 -1.451266,-0.97721 -2.701898,-2.39379 -3.649741,-4.11475 l -0.09218,-0.16721 0.09218,-0.16749 c 0.947817,-1.72095 2.198475,-3.13753 3.649741,-4.11474 1.415018,-0.95282 3.020986,-1.49035 4.724426,-1.49035 1.704075,0 3.309726,0.53753 4.725061,1.49035 z m -4.81412,1.56533 c 0.979699,0 1.847533,0.48032 2.380985,1.21814 -0.428783,-0.59315 -1.073467,-1.01939 -1.818798,-1.16409 -0.20029,0.30065 -0.317818,0.66471 -0.317818,1.05754 0,1.03063 0.808144,1.86595 1.805041,1.86595 0.319669,0 0.619998,-0.0859 0.880612,-0.23657 0.0041,0.0647 0.0066,0.12999 0.0066,0.19593 0,1.62189 -1.315032,2.93661 -2.93661,2.93661 -1.621895,0 -2.936901,-1.31472 -2.936901,-2.93661 0,-1.6219 1.314979,-2.93688 2.936875,-2.93688 z m 2.382838,1.22033 c 0.01064,0.015 0.02125,0.0303 0.03188,0.0453 -0.01064,-0.015 -0.02125,-0.0303 -0.03188,-0.0453 z m 0.03469,0.0497 z m 0.213122,0.36124 z m 0.02627,0.0541 z m 0.114988,0.28062 c 0.0056,0.0159 0.01125,0.0322 0.01656,0.0481 -0.0053,-0.0162 -0.01093,-0.0322 -0.01656,-0.0481 z m 0.01905,0.0559 z m 0.09284,0.3597 z m 3.759728,0.33531 c -0.758454,-1.33094 -1.738153,-2.42502 -2.865649,-3.18442 -1.110032,-0.74687 -2.363469,-1.16846 -3.68882,-1.16846 -1.324689,0 -2.578444,0.42159 -3.688132,1.16846 -1.127522,0.7594 -2.107539,1.85346 -2.865967,3.18442 0.758428,1.33096 1.738445,2.42503 2.865967,3.18378 1.109688,0.74718 2.363443,1.16877 3.688159,1.16877 1.325297,0 2.578761,-0.42156 3.688793,-1.16877 1.127496,-0.75875 2.107195,-1.85282 2.865649,-3.18378 z"
         id="path848" />
    </g>
    <g
       style="font-style:italic;font-variant:normal;font-weight:normal;font-stretch:normal;font-size:2.11667px;line-height:1.25;font-family:Lato;-inkscape-font-specification:'Lato Italic';letter-spacing:0px;word-spacing:0px;stroke-width:0.264583"
       id="text869"
       aria-label="&quot;Where words are restrained, 
the eyes often talk a great deal.&quot;">
      <path
         id="path1050"
         style="font-style:italic;font-variant:normal;font-weight:normal;font-stretch:normal;font-size:2.11667px;font-family:Lato;-inkscape-font-specification:'Lato Italic';text-align:center;text-anchor:middle;fill:#1a1a1a;stroke-width:0.264583"
         d="m 42.204001,145.50441 -0.0381,0.30586 -0.03598,0.16404 q -0.0074,0.0328 -0.02434,0.0508 -0.01588,0.018 -0.04657,0.018 -0.02752,0 -0.03916,-0.018 -0.01164,-0.018 -0.01164,-0.0508 v -0.16404 l 0.03916,-0.30586 z m 0.330201,0 -0.0381,0.30586 -0.03598,0.16404 q -0.0074,0.0328 -0.02434,0.0508 -0.01587,0.018 -0.04657,0.018 -0.02752,0 -0.03916,-0.018 -0.01164,-0.018 -0.01164,-0.0508 v -0.16404 l 0.03916,-0.30586 z" />
      <path
         id="path1052"
         style="font-style:italic;font-variant:normal;font-weight:normal;font-stretch:normal;font-size:2.11667px;font-family:Lato;-inkscape-font-specification:'Lato Italic';text-align:center;text-anchor:middle;fill:#1a1a1a;stroke-width:0.264583"
         d="m 42.743744,145.5023 h 0.154517 q 0.02646,0 0.04233,0.0138 0.01588,0.0127 0.01905,0.0339 l 0.162983,1.07315 q 0.0021,0.0148 0.0032,0.036 0.0021,0.0212 0.0042,0.0413 0.0011,0.0233 0.0021,0.0476 0.01058,-0.0339 0.02117,-0.0656 0.01164,-0.0318 0.02328,-0.0593 l 0.454026,-1.07315 q 0.0085,-0.018 0.02752,-0.0328 0.01905,-0.0148 0.04445,-0.0148 h 0.04551 q 0.02646,0 0.04233,0.0138 0.01588,0.0127 0.02011,0.0339 l 0.189442,1.07315 q 0.0053,0.0275 0.0085,0.0582 0.0032,0.0307 0.0053,0.0646 0.01058,-0.0339 0.01905,-0.0646 0.0095,-0.0307 0.02011,-0.0582 l 0.426509,-1.07315 q 0.0074,-0.018 0.02752,-0.0328 0.02117,-0.0148 0.04657,-0.0148 h 0.154517 l -0.621243,1.51659 h -0.178858 l -0.205317,-1.16734 q -0.0032,-0.0169 -0.0063,-0.037 -0.0021,-0.0201 -0.0042,-0.0413 -0.0074,0.0212 -0.01482,0.0413 -0.0064,0.0201 -0.01376,0.037 l -0.492125,1.16734 h -0.177801 z" />
      <path
         id="path1054"
         style="font-style:italic;font-variant:normal;font-weight:normal;font-stretch:normal;font-size:2.11667px;font-family:Lato;-inkscape-font-specification:'Lato Italic';text-align:center;text-anchor:middle;fill:#1a1a1a;stroke-width:0.264583"
         d="m 44.682614,147.01889 0.188383,-1.55893 h 0.188384 l -0.08784,0.7239 q 0.08361,-0.12488 0.185209,-0.18838 0.102658,-0.0646 0.20955,-0.0646 0.121709,0 0.187325,0.0804 0.06562,0.0804 0.06562,0.23389 0,0.0212 -0.0011,0.0445 -0.0011,0.0222 -0.0042,0.0466 l -0.08043,0.68263 h -0.188384 l 0.08043,-0.68263 q 0.0021,-0.0212 0.0032,-0.0402 0.0021,-0.0201 0.0021,-0.0381 0,-0.0868 -0.03281,-0.12912 -0.03175,-0.0423 -0.1016,-0.0423 -0.04762,0 -0.09842,0.0265 -0.04974,0.0254 -0.09737,0.073 -0.04763,0.0476 -0.0889,0.11536 -0.04127,0.0667 -0.07197,0.14922 l -0.06879,0.56833 z" />
      <path
         id="path1056"
         style="font-style:italic;font-variant:normal;font-weight:normal;font-stretch:normal;font-size:2.11667px;font-family:Lato;-inkscape-font-specification:'Lato Italic';text-align:center;text-anchor:middle;fill:#1a1a1a;stroke-width:0.264583"
         d="m 46.653231,146.17646 q 0,0.0699 -0.02857,0.12911 -0.02858,0.0582 -0.104775,0.10584 -0.0762,0.0466 -0.209551,0.0815 -0.13335,0.0349 -0.3429,0.0561 -0.0011,0.0116 -0.0011,0.0233 0,0.0106 0,0.0222 0,0.14181 0.06138,0.21696 0.06244,0.0741 0.187325,0.0741 0.0508,0 0.08996,-0.0106 0.04022,-0.0106 0.07091,-0.0254 0.03175,-0.0159 0.05503,-0.0339 0.02434,-0.019 0.04445,-0.0339 0.02011,-0.0159 0.03704,-0.0265 0.01693,-0.0106 0.03387,-0.0106 0.01905,0 0.03492,0.018 l 0.04657,0.0582 q -0.05398,0.0561 -0.105834,0.0963 -0.0508,0.0392 -0.104775,0.0656 -0.05398,0.0265 -0.113242,0.0381 -0.05821,0.0127 -0.125941,0.0127 -0.09208,0 -0.165101,-0.0307 -0.07303,-0.0307 -0.123825,-0.0868 -0.0508,-0.0572 -0.07832,-0.13758 -0.02752,-0.0804 -0.02752,-0.17992 0,-0.0825 0.01693,-0.16404 0.01799,-0.0825 0.0508,-0.15663 0.03387,-0.0741 0.08149,-0.13759 0.04868,-0.0635 0.110067,-0.10901 0.06244,-0.0466 0.136525,-0.073 0.07514,-0.0265 0.160867,-0.0265 0.08149,0 0.140758,0.0233 0.05927,0.0233 0.09737,0.0593 0.0381,0.036 0.05609,0.0794 0.01905,0.0434 0.01905,0.0825 z m -0.323851,-0.10901 q -0.06668,0 -0.122766,0.0275 -0.05609,0.0275 -0.09948,0.0762 -0.04339,0.0476 -0.07408,0.11325 -0.03069,0.0645 -0.04763,0.1397 0.162983,-0.0201 0.261408,-0.0455 0.09842,-0.0265 0.151342,-0.0561 0.05292,-0.0307 0.06985,-0.0656 0.01693,-0.0349 0.01693,-0.073 0,-0.0191 -0.0085,-0.0392 -0.0085,-0.0212 -0.02752,-0.0381 -0.01799,-0.0169 -0.04762,-0.0275 -0.02963,-0.0116 -0.07197,-0.0116 z" />
      <path
         id="path1058"
         style="font-style:italic;font-variant:normal;font-weight:normal;font-stretch:normal;font-size:2.11667px;font-family:Lato;-inkscape-font-specification:'Lato Italic';text-align:center;text-anchor:middle;fill:#1a1a1a;stroke-width:0.264583"
         d="m 46.771761,147.01889 0.129117,-1.07315 h 0.09419 q 0.02963,0 0.04657,0.0138 0.01693,0.0138 0.01693,0.0423 0,0.004 -0.0011,0.0127 0,0.007 -0.0011,0.0159 0,0.008 -0.0011,0.0148 0,0.006 0,0.007 l -0.01482,0.19473 q 0.06879,-0.14816 0.153459,-0.2286 0.08572,-0.0804 0.179917,-0.0804 0.04445,0 0.0889,0.019 l -0.03387,0.18098 q -0.04974,-0.0201 -0.09631,-0.0201 -0.102659,0 -0.183092,0.10054 -0.08043,0.0995 -0.134409,0.30268 l -0.05927,0.49742 z" />
      <path
         id="path1060"
         style="font-style:italic;font-variant:normal;font-weight:normal;font-stretch:normal;font-size:2.11667px;font-family:Lato;-inkscape-font-specification:'Lato Italic';text-align:center;text-anchor:middle;fill:#1a1a1a;stroke-width:0.264583"
         d="m 48.329629,146.17646 q 0,0.0699 -0.02857,0.12911 -0.02858,0.0582 -0.104775,0.10584 -0.0762,0.0466 -0.209551,0.0815 -0.13335,0.0349 -0.3429,0.0561 -0.0011,0.0116 -0.0011,0.0233 0,0.0106 0,0.0222 0,0.14181 0.06138,0.21696 0.06244,0.0741 0.187325,0.0741 0.0508,0 0.08996,-0.0106 0.04022,-0.0106 0.07091,-0.0254 0.03175,-0.0159 0.05503,-0.0339 0.02434,-0.019 0.04445,-0.0339 0.02011,-0.0159 0.03704,-0.0265 0.01693,-0.0106 0.03387,-0.0106 0.01905,0 0.03493,0.018 l 0.04657,0.0582 q -0.05398,0.0561 -0.105834,0.0963 -0.0508,0.0392 -0.104775,0.0656 -0.05398,0.0265 -0.113242,0.0381 -0.05821,0.0127 -0.125941,0.0127 -0.09208,0 -0.165101,-0.0307 -0.07302,-0.0307 -0.123825,-0.0868 -0.0508,-0.0572 -0.07832,-0.13758 -0.02752,-0.0804 -0.02752,-0.17992 0,-0.0825 0.01693,-0.16404 0.01799,-0.0825 0.0508,-0.15663 0.03387,-0.0741 0.08149,-0.13759 0.04868,-0.0635 0.110067,-0.10901 0.06244,-0.0466 0.136525,-0.073 0.07514,-0.0265 0.160867,-0.0265 0.08149,0 0.140758,0.0233 0.05927,0.0233 0.09737,0.0593 0.0381,0.036 0.05609,0.0794 0.01905,0.0434 0.01905,0.0825 z m -0.323851,-0.10901 q -0.06667,0 -0.122766,0.0275 -0.05609,0.0275 -0.09948,0.0762 -0.04339,0.0476 -0.07408,0.11325 -0.03069,0.0645 -0.04763,0.1397 0.162983,-0.0201 0.261408,-0.0455 0.09843,-0.0265 0.151342,-0.0561 0.05292,-0.0307 0.06985,-0.0656 0.01693,-0.0349 0.01693,-0.073 0,-0.0191 -0.0085,-0.0392 -0.0085,-0.0212 -0.02752,-0.0381 -0.01799,-0.0169 -0.04762,-0.0275 -0.02963,-0.0116 -0.07197,-0.0116 z" />
      <path
         id="path1062"
         style="font-style:italic;font-variant:normal;font-weight:normal;font-stretch:normal;font-size:2.11667px;font-family:Lato;-inkscape-font-specification:'Lato Italic';text-align:center;text-anchor:middle;fill:#1a1a1a;stroke-width:0.264583"
         d="m 48.867258,145.9468 h 0.140758 q 0.02117,0 0.03387,0.0106 0.01376,0.0106 0.01588,0.0286 l 0.09842,0.69003 q 0.0053,0.037 0.0053,0.072 0.0011,0.0339 0.0021,0.0677 0.0127,-0.0339 0.0254,-0.0677 0.01376,-0.0349 0.02858,-0.072 l 0.293159,-0.69427 q 0.0064,-0.0159 0.02011,-0.0265 0.01482,-0.0106 0.03281,-0.0106 h 0.07832 q 0.02117,0 0.03281,0.0106 0.01164,0.0106 0.01376,0.0265 l 0.119592,0.69427 q 0.0063,0.037 0.0095,0.072 0.0042,0.0349 0.0074,0.0699 0.01058,-0.0339 0.02011,-0.0688 0.01058,-0.036 0.0254,-0.073 l 0.270934,-0.69003 q 0.0064,-0.0169 0.02117,-0.0275 0.01482,-0.0116 0.03387,-0.0116 h 0.135466 l -0.449792,1.07209 h -0.142875 q -0.02434,0 -0.03069,-0.036 l -0.130175,-0.72708 q -0.0032,-0.0169 -0.0053,-0.0339 -0.0021,-0.018 -0.0042,-0.0349 -0.0053,0.018 -0.01058,0.0349 -0.0053,0.0169 -0.0127,0.0349 l -0.310093,0.72602 q -0.01482,0.036 -0.04233,0.036 h -0.137583 z" />
      <path
         id="path1064"
         style="font-style:italic;font-variant:normal;font-weight:normal;font-stretch:normal;font-size:2.11667px;font-family:Lato;-inkscape-font-specification:'Lato Italic';text-align:center;text-anchor:middle;fill:#1a1a1a;stroke-width:0.264583"
         d="m 50.757443,146.8866 q 0.07726,0 0.140758,-0.0423 0.0635,-0.0423 0.10795,-0.11219 0.04445,-0.0709 0.06879,-0.16298 0.02434,-0.0921 0.02434,-0.19262 0,-0.14817 -0.05821,-0.22331 -0.05821,-0.0751 -0.168275,-0.0751 -0.07832,0 -0.141817,0.0423 -0.06244,0.0413 -0.106892,0.11219 -0.04445,0.0699 -0.06879,0.16192 -0.02434,0.0921 -0.02434,0.19262 0,0.14817 0.05715,0.22437 0.05821,0.0751 0.169334,0.0751 z m -0.01693,0.14711 q -0.08784,0 -0.160867,-0.0296 -0.07303,-0.0307 -0.125942,-0.0878 -0.05292,-0.0572 -0.08255,-0.1397 -0.02963,-0.0825 -0.02963,-0.18838 0,-0.13547 0.04233,-0.25506 0.04233,-0.11959 0.115359,-0.20955 0.07408,-0.09 0.173567,-0.14182 0.100542,-0.0519 0.216958,-0.0519 0.08784,0 0.160867,0.0307 0.07303,0.0296 0.125942,0.0868 0.05292,0.0572 0.08255,0.14076 0.02963,0.0825 0.02963,0.18732 0,0.13441 -0.04233,0.254 -0.04233,0.11959 -0.116417,0.20955 -0.07303,0.09 -0.173566,0.14288 -0.100542,0.0519 -0.215901,0.0519 z" />
      <path
         id="path1066"
         style="font-style:italic;font-variant:normal;font-weight:normal;font-stretch:normal;font-size:2.11667px;font-family:Lato;-inkscape-font-specification:'Lato Italic';text-align:center;text-anchor:middle;fill:#1a1a1a;stroke-width:0.264583"
         d="m 51.422074,147.01889 0.129117,-1.07315 h 0.09419 q 0.02963,0 0.04657,0.0138 0.01693,0.0138 0.01693,0.0423 0,0.004 -0.0011,0.0127 0,0.007 -0.0011,0.0159 0,0.008 -0.0011,0.0148 0,0.006 0,0.007 l -0.01482,0.19473 q 0.06879,-0.14816 0.153458,-0.2286 0.08573,-0.0804 0.179917,-0.0804 0.04445,0 0.0889,0.019 l -0.03387,0.18098 q -0.04974,-0.0201 -0.09631,-0.0201 -0.102658,0 -0.183092,0.10054 -0.08043,0.0995 -0.134408,0.30268 l -0.05927,0.49742 z" />
      <path
         id="path1068"
         style="font-style:italic;font-variant:normal;font-weight:normal;font-stretch:normal;font-size:2.11667px;font-family:Lato;-inkscape-font-specification:'Lato Italic';text-align:center;text-anchor:middle;fill:#1a1a1a;stroke-width:0.264583"
         d="m 52.84765,147.01889 q -0.03704,0 -0.0508,-0.019 -0.0127,-0.019 -0.0127,-0.0466 l 0.02011,-0.22331 q -0.04022,0.0688 -0.08784,0.12489 -0.04763,0.0561 -0.100541,0.0963 -0.05186,0.0392 -0.109009,0.0614 -0.05609,0.0212 -0.1143,0.0212 -0.137584,0 -0.213784,-0.0995 -0.07514,-0.10054 -0.07514,-0.29104 0,-0.0868 0.01799,-0.17357 0.01799,-0.0868 0.0508,-0.16615 0.03387,-0.0794 0.08043,-0.14711 0.04763,-0.0688 0.104775,-0.11854 0.05821,-0.0497 0.125942,-0.0783 0.06773,-0.0286 0.141817,-0.0286 0.07832,0 0.142875,0.0307 0.06562,0.0307 0.111125,0.0879 l 0.07303,-0.5895 h 0.185209 l -0.192617,1.55893 z m -0.384176,-0.13652 q 0.0508,0 0.101601,-0.0307 0.05186,-0.0318 0.09948,-0.0868 0.04868,-0.0561 0.08996,-0.13229 0.04233,-0.0773 0.07303,-0.16828 l 0.03493,-0.28363 q -0.04022,-0.0561 -0.09631,-0.0794 -0.05609,-0.0233 -0.113242,-0.0233 -0.08361,0 -0.151342,0.0497 -0.06667,0.0497 -0.1143,0.12912 -0.04657,0.0783 -0.07197,0.17568 -0.0254,0.0974 -0.0254,0.19156 0,0.12594 0.04551,0.19262 0.04551,0.0656 0.128058,0.0656 z" />
      <path
         id="path1070"
         style="font-style:italic;font-variant:normal;font-weight:normal;font-stretch:normal;font-size:2.11667px;font-family:Lato;-inkscape-font-specification:'Lato Italic';text-align:center;text-anchor:middle;fill:#1a1a1a;stroke-width:0.264583"
         d="m 53.926091,146.11825 q -0.0085,0.0127 -0.01693,0.0191 -0.0085,0.005 -0.02117,0.005 -0.01482,0 -0.03281,-0.0116 -0.01693,-0.0116 -0.04233,-0.0254 -0.02434,-0.0148 -0.06032,-0.0265 -0.03598,-0.0127 -0.08678,-0.0127 -0.04762,0 -0.08678,0.0138 -0.03916,0.0127 -0.06773,0.036 -0.02857,0.0233 -0.04445,0.055 -0.01482,0.0307 -0.01482,0.0656 0,0.0497 0.03281,0.0794 0.03281,0.0296 0.08255,0.0519 0.04974,0.0212 0.106891,0.0413 0.05821,0.0201 0.107951,0.0508 0.04974,0.0307 0.08255,0.0783 0.03281,0.0476 0.03281,0.12382 0,0.0741 -0.02963,0.14182 -0.02857,0.0677 -0.08361,0.11959 -0.05398,0.0508 -0.131233,0.0815 -0.0762,0.0307 -0.171451,0.0307 -0.102658,0 -0.182033,-0.036 -0.07832,-0.037 -0.128059,-0.0942 l 0.04657,-0.072 q 0.0085,-0.0138 0.02011,-0.0212 0.01164,-0.007 0.02963,-0.007 0.01693,0 0.03387,0.0148 0.01693,0.0148 0.04233,0.0339 0.0254,0.018 0.0635,0.0328 0.03916,0.0148 0.09842,0.0148 0.05186,0 0.09313,-0.0159 0.04233,-0.0159 0.07091,-0.0423 0.02963,-0.0265 0.04445,-0.0614 0.01588,-0.036 0.01588,-0.0762 0,-0.054 -0.03281,-0.0857 -0.03281,-0.0317 -0.08255,-0.0529 -0.04974,-0.0212 -0.106892,-0.0392 -0.05715,-0.019 -0.106892,-0.0476 -0.04974,-0.0296 -0.08255,-0.0762 -0.03281,-0.0466 -0.03281,-0.12383 0,-0.0677 0.02646,-0.13017 0.02752,-0.0635 0.07832,-0.11219 0.0508,-0.0487 0.122766,-0.0773 0.07303,-0.0296 0.164042,-0.0296 0.09631,0 0.169334,0.0328 0.07408,0.0317 0.127,0.0868 z" />
      <path
         id="path1072"
         style="font-style:italic;font-variant:normal;font-weight:normal;font-stretch:normal;font-size:2.11667px;font-family:Lato;-inkscape-font-specification:'Lato Italic';text-align:center;text-anchor:middle;fill:#1a1a1a;stroke-width:0.264583"
         d="m 55.256416,147.01889 h -0.09737 q -0.03704,0 -0.0508,-0.019 -0.0127,-0.019 -0.0127,-0.0466 l 0.01905,-0.21696 q -0.0381,0.0677 -0.08255,0.12277 -0.04339,0.055 -0.09313,0.0942 -0.04868,0.0381 -0.102658,0.0593 -0.05398,0.0212 -0.112184,0.0212 -0.0635,0 -0.115358,-0.0243 -0.05186,-0.0254 -0.0889,-0.073 -0.03598,-0.0487 -0.05609,-0.11853 -0.02011,-0.0709 -0.02011,-0.16193 0,-0.0952 0.02328,-0.18521 0.02434,-0.091 0.06773,-0.17145 0.04445,-0.0804 0.105834,-0.14711 0.06138,-0.0677 0.136525,-0.11641 0.0762,-0.0497 0.162983,-0.0762 0.08678,-0.0275 0.182034,-0.0275 0.06879,0 0.13335,0.0116 0.06562,0.0106 0.129117,0.0381 z m -0.461435,-0.14182 q 0.05186,0 0.101601,-0.0318 0.04974,-0.0328 0.09419,-0.09 0.04445,-0.0572 0.08255,-0.13546 0.03916,-0.0794 0.06879,-0.17357 l 0.04551,-0.3683 q -0.02328,-0.005 -0.04657,-0.006 -0.02223,-0.002 -0.04445,-0.002 -0.0635,0 -0.122767,0.0212 -0.05927,0.0201 -0.111125,0.0571 -0.05186,0.037 -0.09419,0.0889 -0.04233,0.0508 -0.07303,0.11218 -0.02963,0.0614 -0.04657,0.13124 -0.01693,0.0688 -0.01693,0.14181 0,0.25506 0.162983,0.25506 z" />
      <path
         id="path1074"
         style="font-style:italic;font-variant:normal;font-weight:normal;font-stretch:normal;font-size:2.11667px;font-family:Lato;-inkscape-font-specification:'Lato Italic';text-align:center;text-anchor:middle;fill:#1a1a1a;stroke-width:0.264583"
         d="m 55.536873,147.01889 0.129117,-1.07315 h 0.09419 q 0.02963,0 0.04657,0.0138 0.01693,0.0138 0.01693,0.0423 0,0.004 -0.0011,0.0127 0,0.007 -0.0011,0.0159 0,0.008 -0.0011,0.0148 0,0.006 0,0.007 l -0.01482,0.19473 q 0.06879,-0.14816 0.153459,-0.2286 0.08573,-0.0804 0.179917,-0.0804 0.04445,0 0.0889,0.019 l -0.03387,0.18098 q -0.04974,-0.0201 -0.09631,-0.0201 -0.102659,0 -0.183092,0.10054 -0.08043,0.0995 -0.134409,0.30268 l -0.05927,0.49742 z" />
      <path
         id="path1076"
         style="font-style:italic;font-variant:normal;font-weight:normal;font-stretch:normal;font-size:2.11667px;font-family:Lato;-inkscape-font-specification:'Lato Italic';text-align:center;text-anchor:middle;fill:#1a1a1a;stroke-width:0.264583"
         d="m 57.09474,146.17646 q 0,0.0699 -0.02858,0.12911 -0.02857,0.0582 -0.104775,0.10584 -0.0762,0.0466 -0.20955,0.0815 -0.13335,0.0349 -0.342901,0.0561 -0.0011,0.0116 -0.0011,0.0233 0,0.0106 0,0.0222 0,0.14181 0.06138,0.21696 0.06244,0.0741 0.187326,0.0741 0.0508,0 0.08996,-0.0106 0.04022,-0.0106 0.07091,-0.0254 0.03175,-0.0159 0.05503,-0.0339 0.02434,-0.019 0.04445,-0.0339 0.02011,-0.0159 0.03704,-0.0265 0.01693,-0.0106 0.03387,-0.0106 0.01905,0 0.03493,0.018 l 0.04657,0.0582 q -0.05397,0.0561 -0.105833,0.0963 -0.0508,0.0392 -0.104775,0.0656 -0.05398,0.0265 -0.113242,0.0381 -0.05821,0.0127 -0.125942,0.0127 -0.09208,0 -0.1651,-0.0307 -0.07303,-0.0307 -0.123825,-0.0868 -0.0508,-0.0572 -0.07832,-0.13758 -0.02752,-0.0804 -0.02752,-0.17992 0,-0.0825 0.01693,-0.16404 0.01799,-0.0825 0.0508,-0.15663 0.03387,-0.0741 0.08149,-0.13759 0.04868,-0.0635 0.110067,-0.10901 0.06244,-0.0466 0.136525,-0.073 0.07514,-0.0265 0.160867,-0.0265 0.08149,0 0.140759,0.0233 0.05927,0.0233 0.09737,0.0593 0.0381,0.036 0.05609,0.0794 0.01905,0.0434 0.01905,0.0825 z m -0.32385,-0.10901 q -0.06668,0 -0.122767,0.0275 -0.05609,0.0275 -0.09948,0.0762 -0.04339,0.0476 -0.07408,0.11325 -0.03069,0.0645 -0.04762,0.1397 0.162984,-0.0201 0.261409,-0.0455 0.09843,-0.0265 0.151342,-0.0561 0.05292,-0.0307 0.06985,-0.0656 0.01693,-0.0349 0.01693,-0.073 0,-0.0191 -0.0085,-0.0392 -0.0085,-0.0212 -0.02752,-0.0381 -0.01799,-0.0169 -0.04762,-0.0275 -0.02963,-0.0116 -0.07197,-0.0116 z" />
      <path
         id="path1078"
         style="font-style:italic;font-variant:normal;font-weight:normal;font-stretch:normal;font-size:2.11667px;font-family:Lato;-inkscape-font-specification:'Lato Italic';text-align:center;text-anchor:middle;fill:#1a1a1a;stroke-width:0.264583"
         d="m 57.621786,147.01889 0.129116,-1.07315 h 0.09419 q 0.02963,0 0.04657,0.0138 0.01693,0.0138 0.01693,0.0423 0,0.004 -0.0011,0.0127 0,0.007 -0.0011,0.0159 0,0.008 -0.0011,0.0148 0,0.006 0,0.007 l -0.01482,0.19473 q 0.06879,-0.14816 0.153458,-0.2286 0.08573,-0.0804 0.179917,-0.0804 0.04445,0 0.0889,0.019 l -0.03387,0.18098 q -0.04974,-0.0201 -0.09631,-0.0201 -0.102658,0 -0.183092,0.10054 -0.08043,0.0995 -0.134408,0.30268 l -0.05927,0.49742 z" />
      <path
         id="path1080"
         style="font-style:italic;font-variant:normal;font-weight:normal;font-stretch:normal;font-size:2.11667px;font-family:Lato;-inkscape-font-specification:'Lato Italic';text-align:center;text-anchor:middle;fill:#1a1a1a;stroke-width:0.264583"
         d="m 59.179654,146.17646 q 0,0.0699 -0.02857,0.12911 -0.02858,0.0582 -0.104776,0.10584 -0.0762,0.0466 -0.20955,0.0815 -0.13335,0.0349 -0.3429,0.0561 -0.0011,0.0116 -0.0011,0.0233 0,0.0106 0,0.0222 0,0.14181 0.06138,0.21696 0.06244,0.0741 0.187325,0.0741 0.0508,0 0.08996,-0.0106 0.04022,-0.0106 0.07091,-0.0254 0.03175,-0.0159 0.05503,-0.0339 0.02434,-0.019 0.04445,-0.0339 0.02011,-0.0159 0.03704,-0.0265 0.01693,-0.0106 0.03387,-0.0106 0.01905,0 0.03493,0.018 l 0.04657,0.0582 q -0.05398,0.0561 -0.105834,0.0963 -0.0508,0.0392 -0.104775,0.0656 -0.05397,0.0265 -0.113242,0.0381 -0.05821,0.0127 -0.125942,0.0127 -0.09208,0 -0.1651,-0.0307 -0.07303,-0.0307 -0.123825,-0.0868 -0.0508,-0.0572 -0.07832,-0.13758 -0.02752,-0.0804 -0.02752,-0.17992 0,-0.0825 0.01693,-0.16404 0.01799,-0.0825 0.0508,-0.15663 0.03387,-0.0741 0.08149,-0.13759 0.04868,-0.0635 0.110066,-0.10901 0.06244,-0.0466 0.136526,-0.073 0.07514,-0.0265 0.160867,-0.0265 0.08149,0 0.140758,0.0233 0.05927,0.0233 0.09737,0.0593 0.0381,0.036 0.05609,0.0794 0.01905,0.0434 0.01905,0.0825 z m -0.323851,-0.10901 q -0.06668,0 -0.122767,0.0275 -0.05609,0.0275 -0.09948,0.0762 -0.04339,0.0476 -0.07408,0.11325 -0.03069,0.0645 -0.04762,0.1397 0.162984,-0.0201 0.261409,-0.0455 0.09843,-0.0265 0.151342,-0.0561 0.05292,-0.0307 0.06985,-0.0656 0.01693,-0.0349 0.01693,-0.073 0,-0.0191 -0.0085,-0.0392 -0.0085,-0.0212 -0.02752,-0.0381 -0.01799,-0.0169 -0.04762,-0.0275 -0.02963,-0.0116 -0.07197,-0.0116 z" />
      <path
         id="path1082"
         style="font-style:italic;font-variant:normal;font-weight:normal;font-stretch:normal;font-size:2.11667px;font-family:Lato;-inkscape-font-specification:'Lato Italic';text-align:center;text-anchor:middle;fill:#1a1a1a;stroke-width:0.264583"
         d="m 59.988219,146.11825 q -0.0085,0.0127 -0.01693,0.0191 -0.0085,0.005 -0.02117,0.005 -0.01482,0 -0.03281,-0.0116 -0.01693,-0.0116 -0.04233,-0.0254 -0.02434,-0.0148 -0.06032,-0.0265 -0.03598,-0.0127 -0.08678,-0.0127 -0.04762,0 -0.08678,0.0138 -0.03916,0.0127 -0.06773,0.036 -0.02857,0.0233 -0.04445,0.055 -0.01482,0.0307 -0.01482,0.0656 0,0.0497 0.03281,0.0794 0.03281,0.0296 0.08255,0.0519 0.04974,0.0212 0.106891,0.0413 0.05821,0.0201 0.107951,0.0508 0.04974,0.0307 0.08255,0.0783 0.03281,0.0476 0.03281,0.12382 0,0.0741 -0.02963,0.14182 -0.02858,0.0677 -0.08361,0.11959 -0.05397,0.0508 -0.131233,0.0815 -0.0762,0.0307 -0.171451,0.0307 -0.102658,0 -0.182033,-0.036 -0.07832,-0.037 -0.128059,-0.0942 l 0.04657,-0.072 q 0.0085,-0.0138 0.02011,-0.0212 0.01164,-0.007 0.02963,-0.007 0.01693,0 0.03387,0.0148 0.01693,0.0148 0.04233,0.0339 0.0254,0.018 0.0635,0.0328 0.03916,0.0148 0.09843,0.0148 0.05186,0 0.09313,-0.0159 0.04233,-0.0159 0.07091,-0.0423 0.02963,-0.0265 0.04445,-0.0614 0.01588,-0.036 0.01588,-0.0762 0,-0.054 -0.03281,-0.0857 -0.03281,-0.0317 -0.08255,-0.0529 -0.04974,-0.0212 -0.106892,-0.0392 -0.05715,-0.019 -0.106892,-0.0476 -0.04974,-0.0296 -0.08255,-0.0762 -0.03281,-0.0466 -0.03281,-0.12383 0,-0.0677 0.02646,-0.13017 0.02752,-0.0635 0.07832,-0.11219 0.0508,-0.0487 0.122767,-0.0773 0.07303,-0.0296 0.164041,-0.0296 0.09631,0 0.169334,0.0328 0.07408,0.0317 0.127,0.0868 z" />
      <path
         id="path1084"
         style="font-style:italic;font-variant:normal;font-weight:normal;font-stretch:normal;font-size:2.11667px;font-family:Lato;-inkscape-font-specification:'Lato Italic';text-align:center;text-anchor:middle;fill:#1a1a1a;stroke-width:0.264583"
         d="m 60.214702,146.81675 q 0,-0.006 0,-0.0159 0.0011,-0.0106 0.0021,-0.0296 0.0021,-0.019 0.0053,-0.0497 0.0032,-0.0307 0.0095,-0.0804 l 0.06668,-0.53657 h -0.119592 q -0.01376,0 -0.02328,-0.007 -0.0085,-0.008 -0.0085,-0.0254 0,-0.003 0.0011,-0.0127 0.0011,-0.01 0.0021,-0.0212 0.0021,-0.0127 0.0032,-0.0254 0.0021,-0.0127 0.0032,-0.0243 l 0.1651,-0.0222 0.07938,-0.33126 q 0.0042,-0.0159 0.01587,-0.0254 0.01164,-0.0106 0.02858,-0.0106 h 0.09948 l -0.04657,0.36936 h 0.281517 l -0.01588,0.13653 h -0.282575 l -0.06456,0.52705 q -0.0053,0.0434 -0.0085,0.0699 -0.0021,0.0265 -0.0042,0.0423 -0.0011,0.0159 -0.0021,0.0222 0,0.006 0,0.01 0,0.054 0.02434,0.0804 0.0254,0.0254 0.06879,0.0254 0.02752,0 0.04868,-0.007 0.02117,-0.008 0.03598,-0.018 0.01588,-0.01 0.02646,-0.0169 0.01058,-0.008 0.01905,-0.008 0.0085,0 0.0127,0.004 0.0053,0.004 0.01058,0.0138 l 0.03916,0.09 q -0.0508,0.0455 -0.117475,0.072 -0.06562,0.0254 -0.132292,0.0254 -0.102658,0 -0.161925,-0.0561 -0.05927,-0.0561 -0.06138,-0.16298 z" />
      <path
         id="path1086"
         style="font-style:italic;font-variant:normal;font-weight:normal;font-stretch:normal;font-size:2.11667px;font-family:Lato;-inkscape-font-specification:'Lato Italic';text-align:center;text-anchor:middle;fill:#1a1a1a;stroke-width:0.264583"
         d="m 60.846525,147.01889 0.129116,-1.07315 h 0.09419 q 0.02963,0 0.04657,0.0138 0.01693,0.0138 0.01693,0.0423 0,0.004 -0.0011,0.0127 0,0.007 -0.0011,0.0159 0,0.008 -0.0011,0.0148 0,0.006 0,0.007 l -0.01482,0.19473 q 0.06879,-0.14816 0.153458,-0.2286 0.08573,-0.0804 0.179917,-0.0804 0.04445,0 0.0889,0.019 l -0.03387,0.18098 q -0.04974,-0.0201 -0.09631,-0.0201 -0.102658,0 -0.183092,0.10054 -0.08043,0.0995 -0.134408,0.30268 l -0.05927,0.49742 z" />
      <path
         id="path1088"
         style="font-style:italic;font-variant:normal;font-weight:normal;font-stretch:normal;font-size:2.11667px;font-family:Lato;-inkscape-font-specification:'Lato Italic';text-align:center;text-anchor:middle;fill:#1a1a1a;stroke-width:0.264583"
         d="m 62.335601,147.01889 h -0.09737 q -0.03704,0 -0.0508,-0.019 -0.0127,-0.019 -0.0127,-0.0466 l 0.01905,-0.21696 q -0.0381,0.0677 -0.08255,0.12277 -0.04339,0.055 -0.09313,0.0942 -0.04868,0.0381 -0.102659,0.0593 -0.05398,0.0212 -0.112183,0.0212 -0.0635,0 -0.115359,-0.0243 -0.05186,-0.0254 -0.0889,-0.073 -0.03598,-0.0487 -0.05609,-0.11853 -0.02011,-0.0709 -0.02011,-0.16193 0,-0.0952 0.02328,-0.18521 0.02434,-0.091 0.06773,-0.17145 0.04445,-0.0804 0.105833,-0.14711 0.06138,-0.0677 0.136525,-0.11641 0.0762,-0.0497 0.162984,-0.0762 0.08678,-0.0275 0.182033,-0.0275 0.06879,0 0.133351,0.0116 0.06562,0.0106 0.129117,0.0381 z m -0.461434,-0.14182 q 0.05186,0 0.1016,-0.0318 0.04974,-0.0328 0.09419,-0.09 0.04445,-0.0572 0.08255,-0.13546 0.03916,-0.0794 0.06879,-0.17357 l 0.04551,-0.3683 q -0.02328,-0.005 -0.04657,-0.006 -0.02222,-0.002 -0.04445,-0.002 -0.0635,0 -0.122766,0.0212 -0.05927,0.0201 -0.111126,0.0571 -0.05186,0.037 -0.09419,0.0889 -0.04233,0.0508 -0.07303,0.11218 -0.02963,0.0614 -0.04657,0.13124 -0.01693,0.0688 -0.01693,0.14181 0,0.25506 0.162984,0.25506 z" />
      <path
         id="path1090"
         style="font-style:italic;font-variant:normal;font-weight:normal;font-stretch:normal;font-size:2.11667px;font-family:Lato;-inkscape-font-specification:'Lato Italic';text-align:center;text-anchor:middle;fill:#1a1a1a;stroke-width:0.264583"
         d="m 62.955783,145.9468 -0.129117,1.07209 h -0.185208 l 0.129117,-1.07209 z m 0.07091,-0.33655 q 0,0.0275 -0.01164,0.0519 -0.01058,0.0233 -0.02963,0.0423 -0.01799,0.018 -0.04127,0.0286 -0.02328,0.0106 -0.04868,0.0106 -0.02434,0 -0.04762,-0.0106 -0.02328,-0.0106 -0.04127,-0.0286 -0.01693,-0.019 -0.02752,-0.0423 -0.01058,-0.0243 -0.01058,-0.0519 0,-0.0275 0.01058,-0.0519 0.01058,-0.0243 0.02858,-0.0423 0.01799,-0.019 0.04127,-0.0296 0.02328,-0.0116 0.04763,-0.0116 0.0254,0 0.04868,0.0106 0.02328,0.0106 0.04127,0.0296 0.01905,0.018 0.02963,0.0434 0.01058,0.0243 0.01058,0.0519 z" />
      <path
         id="path1092"
         style="font-style:italic;font-variant:normal;font-weight:normal;font-stretch:normal;font-size:2.11667px;font-family:Lato;-inkscape-font-specification:'Lato Italic';text-align:center;text-anchor:middle;fill:#1a1a1a;stroke-width:0.264583"
         d="m 63.131467,147.01889 0.128059,-1.07315 h 0.09419 q 0.0635,0 0.0635,0.0635 l -0.01588,0.20743 q 0.08573,-0.14181 0.192617,-0.21378 0.10795,-0.072 0.223308,-0.072 0.119592,0 0.185209,0.0804 0.06668,0.0804 0.06668,0.23495 0,0.0212 -0.0011,0.0434 -0.0011,0.0222 -0.0042,0.0466 l -0.08043,0.68263 h -0.188384 l 0.08043,-0.68263 q 0.0021,-0.0212 0.0032,-0.0402 0.0021,-0.0201 0.0021,-0.0381 0,-0.0868 -0.03281,-0.12806 -0.03175,-0.0423 -0.100542,-0.0423 -0.0508,0 -0.103717,0.0275 -0.05186,0.0275 -0.100541,0.0783 -0.04868,0.0497 -0.09102,0.12171 -0.04127,0.0709 -0.07091,0.15875 l -0.06138,0.54504 z" />
      <path
         id="path1094"
         style="font-style:italic;font-variant:normal;font-weight:normal;font-stretch:normal;font-size:2.11667px;font-family:Lato;-inkscape-font-specification:'Lato Italic';text-align:center;text-anchor:middle;fill:#1a1a1a;stroke-width:0.264583"
         d="m 65.102084,146.17646 q 0,0.0699 -0.02858,0.12911 -0.02858,0.0582 -0.104775,0.10584 -0.0762,0.0466 -0.209551,0.0815 -0.13335,0.0349 -0.3429,0.0561 -0.0011,0.0116 -0.0011,0.0233 0,0.0106 0,0.0222 0,0.14181 0.06138,0.21696 0.06244,0.0741 0.187325,0.0741 0.0508,0 0.08996,-0.0106 0.04022,-0.0106 0.07091,-0.0254 0.03175,-0.0159 0.05503,-0.0339 0.02434,-0.019 0.04445,-0.0339 0.02011,-0.0159 0.03704,-0.0265 0.01693,-0.0106 0.03387,-0.0106 0.01905,0 0.03493,0.018 l 0.04657,0.0582 q -0.05397,0.0561 -0.105834,0.0963 -0.0508,0.0392 -0.104775,0.0656 -0.05397,0.0265 -0.113242,0.0381 -0.05821,0.0127 -0.125942,0.0127 -0.09207,0 -0.1651,-0.0307 -0.07303,-0.0307 -0.123825,-0.0868 -0.0508,-0.0572 -0.07832,-0.13758 -0.02752,-0.0804 -0.02752,-0.17992 0,-0.0825 0.01693,-0.16404 0.01799,-0.0825 0.0508,-0.15663 0.03387,-0.0741 0.08149,-0.13759 0.04868,-0.0635 0.110066,-0.10901 0.06244,-0.0466 0.136526,-0.073 0.07514,-0.0265 0.160867,-0.0265 0.08149,0 0.140758,0.0233 0.05927,0.0233 0.09737,0.0593 0.0381,0.036 0.05609,0.0794 0.01905,0.0434 0.01905,0.0825 z m -0.323851,-0.10901 q -0.06668,0 -0.122767,0.0275 -0.05609,0.0275 -0.09948,0.0762 -0.04339,0.0476 -0.07408,0.11325 -0.03069,0.0645 -0.04762,0.1397 0.162984,-0.0201 0.261409,-0.0455 0.09842,-0.0265 0.151342,-0.0561 0.05292,-0.0307 0.06985,-0.0656 0.01693,-0.0349 0.01693,-0.073 0,-0.0191 -0.0085,-0.0392 -0.0085,-0.0212 -0.02752,-0.0381 -0.01799,-0.0169 -0.04762,-0.0275 -0.02963,-0.0116 -0.07197,-0.0116 z" />
      <path
         id="path1096"
         style="font-style:italic;font-variant:normal;font-weight:normal;font-stretch:normal;font-size:2.11667px;font-family:Lato;-inkscape-font-specification:'Lato Italic';text-align:center;text-anchor:middle;fill:#1a1a1a;stroke-width:0.264583"
         d="m 65.945574,147.01889 q -0.03704,0 -0.0508,-0.019 -0.0127,-0.019 -0.0127,-0.0466 l 0.02011,-0.22331 q -0.04022,0.0688 -0.08784,0.12489 -0.04762,0.0561 -0.100542,0.0963 -0.05186,0.0392 -0.109009,0.0614 -0.05609,0.0212 -0.1143,0.0212 -0.137583,0 -0.213783,-0.0995 -0.07514,-0.10054 -0.07514,-0.29104 0,-0.0868 0.01799,-0.17357 0.01799,-0.0868 0.0508,-0.16615 0.03387,-0.0794 0.08043,-0.14711 0.04762,-0.0688 0.104775,-0.11854 0.05821,-0.0497 0.125942,-0.0783 0.06773,-0.0286 0.141817,-0.0286 0.07832,0 0.142875,0.0307 0.06562,0.0307 0.111125,0.0879 l 0.07303,-0.5895 h 0.185209 l -0.192617,1.55893 z m -0.384175,-0.13652 q 0.0508,0 0.1016,-0.0307 0.05186,-0.0318 0.09948,-0.0868 0.04868,-0.0561 0.08996,-0.13229 0.04233,-0.0773 0.07303,-0.16828 l 0.03493,-0.28363 q -0.04022,-0.0561 -0.09631,-0.0794 -0.05609,-0.0233 -0.113241,-0.0233 -0.08361,0 -0.151342,0.0497 -0.06667,0.0497 -0.1143,0.12912 -0.04657,0.0783 -0.07197,0.17568 -0.0254,0.0974 -0.0254,0.19156 0,0.12594 0.04551,0.19262 0.04551,0.0656 0.128059,0.0656 z" />
      <path
         id="path1098"
         style="font-style:italic;font-variant:normal;font-weight:normal;font-stretch:normal;font-size:2.11667px;font-family:Lato;-inkscape-font-specification:'Lato Italic';text-align:center;text-anchor:middle;fill:#1a1a1a;stroke-width:0.264583"
         d="m 66.311757,146.88872 q 0,-0.0498 0.03387,-0.0847 0.03493,-0.0349 0.09207,-0.0349 0.03175,0 0.05609,0.0117 0.02434,0.0116 0.04022,0.0328 0.01693,0.0201 0.0254,0.0476 0.0085,0.0265 0.0085,0.0582 0,0.0476 -0.01376,0.0995 -0.0127,0.0508 -0.03916,0.10054 -0.0254,0.0508 -0.06244,0.0984 -0.03704,0.0476 -0.08467,0.0878 l -0.03281,-0.0307 q -0.01376,-0.0127 -0.01376,-0.0296 0,-0.0127 0.01693,-0.0328 0.01693,-0.0201 0.03916,-0.0487 0.02222,-0.0275 0.04233,-0.0646 0.02117,-0.036 0.02858,-0.0804 h -0.0127 q -0.05503,0 -0.08996,-0.036 -0.03387,-0.037 -0.03387,-0.0942 z" />
      <path
         id="path1100"
         style="font-style:italic;font-variant:normal;font-weight:normal;font-stretch:normal;font-size:2.11667px;font-family:Lato;-inkscape-font-specification:'Lato Italic';text-align:center;text-anchor:middle;fill:#1a1a1a;stroke-width:0.264583"
         d="m 41.044075,149.46259 q 0,-0.006 0,-0.0159 0.0011,-0.0106 0.0021,-0.0296 0.0021,-0.019 0.0053,-0.0497 0.0032,-0.0307 0.0095,-0.0804 l 0.06667,-0.53657 h -0.119592 q -0.01376,0 -0.02328,-0.007 -0.0085,-0.008 -0.0085,-0.0254 0,-0.003 0.0011,-0.0127 0.0011,-0.01 0.0021,-0.0212 0.0021,-0.0127 0.0032,-0.0254 0.0021,-0.0127 0.0032,-0.0243 l 0.165101,-0.0222 0.07937,-0.33125 q 0.0042,-0.0159 0.01588,-0.0254 0.01164,-0.0106 0.02857,-0.0106 h 0.09948 l -0.04657,0.36936 h 0.281517 l -0.01588,0.13653 h -0.282576 l -0.06456,0.52705 q -0.0053,0.0434 -0.0085,0.0699 -0.0021,0.0265 -0.0042,0.0423 -0.0011,0.0159 -0.0021,0.0222 0,0.006 0,0.01 0,0.054 0.02434,0.0804 0.0254,0.0254 0.06879,0.0254 0.02752,0 0.04868,-0.007 0.02117,-0.008 0.03598,-0.018 0.01588,-0.01 0.02646,-0.0169 0.01058,-0.008 0.01905,-0.008 0.0085,0 0.0127,0.004 0.0053,0.004 0.01058,0.0138 l 0.03916,0.09 q -0.0508,0.0455 -0.117476,0.072 -0.06562,0.0254 -0.132292,0.0254 -0.102658,0 -0.161925,-0.0561 -0.05927,-0.0561 -0.06138,-0.16298 z" />
      <path
         id="path1102"
         style="font-style:italic;font-variant:normal;font-weight:normal;font-stretch:normal;font-size:2.11667px;font-family:Lato;-inkscape-font-specification:'Lato Italic';text-align:center;text-anchor:middle;fill:#1a1a1a;stroke-width:0.264583"
         d="m 41.684365,149.66473 0.188383,-1.55893 h 0.188384 l -0.08784,0.7239 q 0.08361,-0.12488 0.185209,-0.18838 0.102658,-0.0646 0.20955,-0.0646 0.121709,0 0.187326,0.0804 0.06562,0.0804 0.06562,0.23389 0,0.0212 -0.0011,0.0445 -0.0011,0.0222 -0.0042,0.0466 l -0.08043,0.68263 h -0.188383 l 0.08043,-0.68263 q 0.0021,-0.0212 0.0032,-0.0402 0.0021,-0.0201 0.0021,-0.0381 0,-0.0868 -0.03281,-0.12911 -0.03175,-0.0423 -0.1016,-0.0423 -0.04762,0 -0.09842,0.0265 -0.04974,0.0254 -0.09737,0.073 -0.04762,0.0476 -0.0889,0.11536 -0.04127,0.0667 -0.07197,0.14922 l -0.06879,0.56833 z" />
      <path
         id="path1104"
         style="font-style:italic;font-variant:normal;font-weight:normal;font-stretch:normal;font-size:2.11667px;font-family:Lato;-inkscape-font-specification:'Lato Italic';text-align:center;text-anchor:middle;fill:#1a1a1a;stroke-width:0.264583"
         d="m 43.654982,148.82229 q 0,0.0699 -0.02857,0.12912 -0.02858,0.0582 -0.104775,0.10583 -0.0762,0.0466 -0.209551,0.0815 -0.13335,0.0349 -0.3429,0.0561 -0.0011,0.0116 -0.0011,0.0233 0,0.0106 0,0.0222 0,0.14181 0.06138,0.21695 0.06244,0.0741 0.187325,0.0741 0.0508,0 0.08996,-0.0106 0.04022,-0.0106 0.07091,-0.0254 0.03175,-0.0159 0.05503,-0.0339 0.02434,-0.0191 0.04445,-0.0339 0.02011,-0.0159 0.03704,-0.0265 0.01693,-0.0106 0.03387,-0.0106 0.01905,0 0.03493,0.018 l 0.04657,0.0582 q -0.05398,0.0561 -0.105834,0.0963 -0.0508,0.0392 -0.104775,0.0656 -0.05398,0.0265 -0.113242,0.0381 -0.05821,0.0127 -0.125941,0.0127 -0.09208,0 -0.165101,-0.0307 -0.07302,-0.0307 -0.123825,-0.0868 -0.0508,-0.0572 -0.07832,-0.13758 -0.02752,-0.0804 -0.02752,-0.17992 0,-0.0825 0.01693,-0.16404 0.01799,-0.0825 0.0508,-0.15664 0.03387,-0.0741 0.08149,-0.13758 0.04868,-0.0635 0.110067,-0.10901 0.06244,-0.0466 0.136525,-0.073 0.07514,-0.0265 0.160867,-0.0265 0.08149,0 0.140758,0.0233 0.05927,0.0233 0.09737,0.0593 0.0381,0.036 0.05609,0.0794 0.01905,0.0434 0.01905,0.0825 z m -0.323851,-0.10901 q -0.06667,0 -0.122766,0.0275 -0.05609,0.0275 -0.09948,0.0762 -0.04339,0.0476 -0.07408,0.11324 -0.03069,0.0646 -0.04763,0.1397 0.162983,-0.0201 0.261408,-0.0455 0.09843,-0.0265 0.151342,-0.0561 0.05292,-0.0307 0.06985,-0.0656 0.01693,-0.0349 0.01693,-0.073 0,-0.019 -0.0085,-0.0392 -0.0085,-0.0212 -0.02752,-0.0381 -0.01799,-0.0169 -0.04763,-0.0275 -0.02963,-0.0117 -0.07197,-0.0117 z" />
      <path
         id="path1106"
         style="font-style:italic;font-variant:normal;font-weight:normal;font-stretch:normal;font-size:2.11667px;font-family:Lato;-inkscape-font-specification:'Lato Italic';text-align:center;text-anchor:middle;fill:#1a1a1a;stroke-width:0.264583"
         d="m 45.039279,148.82229 q 0,0.0699 -0.02858,0.12912 -0.02857,0.0582 -0.104776,0.10583 -0.0762,0.0466 -0.20955,0.0815 -0.13335,0.0349 -0.3429,0.0561 -0.0011,0.0116 -0.0011,0.0233 0,0.0106 0,0.0222 0,0.14181 0.06138,0.21695 0.06244,0.0741 0.187325,0.0741 0.0508,0 0.08996,-0.0106 0.04022,-0.0106 0.07091,-0.0254 0.03175,-0.0159 0.05503,-0.0339 0.02434,-0.0191 0.04445,-0.0339 0.02011,-0.0159 0.03704,-0.0265 0.01693,-0.0106 0.03387,-0.0106 0.01905,0 0.03493,0.018 l 0.04657,0.0582 q -0.05398,0.0561 -0.105834,0.0963 -0.0508,0.0392 -0.104775,0.0656 -0.05398,0.0265 -0.113242,0.0381 -0.05821,0.0127 -0.125942,0.0127 -0.09208,0 -0.1651,-0.0307 -0.07303,-0.0307 -0.123825,-0.0868 -0.0508,-0.0572 -0.07832,-0.13758 -0.02752,-0.0804 -0.02752,-0.17992 0,-0.0825 0.01693,-0.16404 0.01799,-0.0825 0.0508,-0.15664 0.03387,-0.0741 0.08149,-0.13758 0.04868,-0.0635 0.110066,-0.10901 0.06244,-0.0466 0.136526,-0.073 0.07514,-0.0265 0.160866,-0.0265 0.08149,0 0.140759,0.0233 0.05927,0.0233 0.09737,0.0593 0.0381,0.036 0.05609,0.0794 0.01905,0.0434 0.01905,0.0825 z m -0.323851,-0.10901 q -0.06668,0 -0.122767,0.0275 -0.05609,0.0275 -0.09948,0.0762 -0.04339,0.0476 -0.07408,0.11324 -0.03069,0.0646 -0.04763,0.1397 0.162984,-0.0201 0.261409,-0.0455 0.09842,-0.0265 0.151342,-0.0561 0.05292,-0.0307 0.06985,-0.0656 0.01693,-0.0349 0.01693,-0.073 0,-0.019 -0.0085,-0.0392 -0.0085,-0.0212 -0.02752,-0.0381 -0.01799,-0.0169 -0.04763,-0.0275 -0.02963,-0.0117 -0.07197,-0.0117 z" />
      <path
         id="path1108"
         style="font-style:italic;font-variant:normal;font-weight:normal;font-stretch:normal;font-size:2.11667px;font-family:Lato;-inkscape-font-specification:'Lato Italic';text-align:center;text-anchor:middle;fill:#1a1a1a;stroke-width:0.264583"
         d="m 45.417101,149.98434 q -0.02223,0.0434 -0.06562,0.0434 h -0.137583 l 0.231775,-0.42651 -0.277284,-1.0086 h 0.155576 q 0.02222,0 0.03281,0.0116 0.01164,0.0106 0.01587,0.0275 l 0.172509,0.67522 q 0.0053,0.0222 0.0085,0.0445 0.0032,0.0222 0.0053,0.0444 0.0095,-0.0222 0.01799,-0.0444 0.0095,-0.0233 0.02117,-0.0455 l 0.338668,-0.67627 q 0.0085,-0.0169 0.02328,-0.0265 0.01588,-0.0106 0.03175,-0.0106 h 0.149225 z" />
      <path
         id="path1110"
         style="font-style:italic;font-variant:normal;font-weight:normal;font-stretch:normal;font-size:2.11667px;font-family:Lato;-inkscape-font-specification:'Lato Italic';text-align:center;text-anchor:middle;fill:#1a1a1a;stroke-width:0.264583"
         d="m 46.995077,148.82229 q 0,0.0699 -0.02858,0.12912 -0.02857,0.0582 -0.104775,0.10583 -0.0762,0.0466 -0.20955,0.0815 -0.133351,0.0349 -0.342901,0.0561 -0.0011,0.0116 -0.0011,0.0233 0,0.0106 0,0.0222 0,0.14181 0.06138,0.21695 0.06244,0.0741 0.187325,0.0741 0.0508,0 0.08996,-0.0106 0.04022,-0.0106 0.07091,-0.0254 0.03175,-0.0159 0.05503,-0.0339 0.02434,-0.0191 0.04445,-0.0339 0.02011,-0.0159 0.03704,-0.0265 0.01693,-0.0106 0.03387,-0.0106 0.01905,0 0.03493,0.018 l 0.04657,0.0582 q -0.05397,0.0561 -0.105834,0.0963 -0.0508,0.0392 -0.104775,0.0656 -0.05398,0.0265 -0.113242,0.0381 -0.05821,0.0127 -0.125941,0.0127 -0.09208,0 -0.165101,-0.0307 -0.07303,-0.0307 -0.123825,-0.0868 -0.0508,-0.0572 -0.07832,-0.13758 -0.02752,-0.0804 -0.02752,-0.17992 0,-0.0825 0.01693,-0.16404 0.01799,-0.0825 0.0508,-0.15664 0.03387,-0.0741 0.08149,-0.13758 0.04868,-0.0635 0.110067,-0.10901 0.06244,-0.0466 0.136525,-0.073 0.07514,-0.0265 0.160867,-0.0265 0.08149,0 0.140758,0.0233 0.05927,0.0233 0.09737,0.0593 0.0381,0.036 0.05609,0.0794 0.01905,0.0434 0.01905,0.0825 z m -0.32385,-0.10901 q -0.06668,0 -0.122767,0.0275 -0.05609,0.0275 -0.09948,0.0762 -0.04339,0.0476 -0.07408,0.11324 -0.03069,0.0646 -0.04763,0.1397 0.162983,-0.0201 0.261408,-0.0455 0.09843,-0.0265 0.151342,-0.0561 0.05292,-0.0307 0.06985,-0.0656 0.01693,-0.0349 0.01693,-0.073 0,-0.019 -0.0085,-0.0392 -0.0085,-0.0212 -0.02752,-0.0381 -0.01799,-0.0169 -0.04763,-0.0275 -0.02963,-0.0117 -0.07197,-0.0117 z" />
      <path
         id="path1112"
         style="font-style:italic;font-variant:normal;font-weight:normal;font-stretch:normal;font-size:2.11667px;font-family:Lato;-inkscape-font-specification:'Lato Italic';text-align:center;text-anchor:middle;fill:#1a1a1a;stroke-width:0.264583"
         d="m 47.803642,148.76408 q -0.0085,0.0127 -0.01693,0.019 -0.0085,0.005 -0.02117,0.005 -0.01482,0 -0.03281,-0.0117 -0.01693,-0.0116 -0.04233,-0.0254 -0.02434,-0.0148 -0.06032,-0.0265 -0.03598,-0.0127 -0.08678,-0.0127 -0.04763,0 -0.08678,0.0137 -0.03916,0.0127 -0.06773,0.036 -0.02858,0.0233 -0.04445,0.055 -0.01482,0.0307 -0.01482,0.0656 0,0.0497 0.03281,0.0794 0.03281,0.0296 0.08255,0.0519 0.04974,0.0212 0.106892,0.0413 0.05821,0.0201 0.10795,0.0508 0.04974,0.0307 0.08255,0.0783 0.03281,0.0476 0.03281,0.12383 0,0.0741 -0.02963,0.14182 -0.02858,0.0677 -0.08361,0.11959 -0.05398,0.0508 -0.131233,0.0815 -0.0762,0.0307 -0.171451,0.0307 -0.102658,0 -0.182033,-0.036 -0.07832,-0.037 -0.128059,-0.0942 l 0.04657,-0.072 q 0.0085,-0.0138 0.02011,-0.0212 0.01164,-0.007 0.02963,-0.007 0.01693,0 0.03387,0.0148 0.01693,0.0148 0.04233,0.0339 0.0254,0.018 0.0635,0.0328 0.03916,0.0148 0.09842,0.0148 0.05186,0 0.09313,-0.0159 0.04233,-0.0159 0.07091,-0.0423 0.02963,-0.0264 0.04445,-0.0614 0.01588,-0.036 0.01588,-0.0762 0,-0.054 -0.03281,-0.0857 -0.03281,-0.0317 -0.08255,-0.0529 -0.04974,-0.0212 -0.106892,-0.0392 -0.05715,-0.0191 -0.106892,-0.0476 -0.04974,-0.0296 -0.08255,-0.0762 -0.03281,-0.0466 -0.03281,-0.12383 0,-0.0677 0.02646,-0.13018 0.02752,-0.0635 0.07832,-0.11218 0.0508,-0.0487 0.122766,-0.0773 0.07303,-0.0296 0.164042,-0.0296 0.09631,0 0.169334,0.0328 0.07408,0.0318 0.127,0.0868 z" />
      <path
         id="path1114"
         style="font-style:italic;font-variant:normal;font-weight:normal;font-stretch:normal;font-size:2.11667px;font-family:Lato;-inkscape-font-specification:'Lato Italic';text-align:center;text-anchor:middle;fill:#1a1a1a;stroke-width:0.264583"
         d="m 48.744499,149.53244 q 0.07726,0 0.140759,-0.0423 0.0635,-0.0423 0.10795,-0.11218 0.04445,-0.0709 0.06879,-0.16298 0.02434,-0.0921 0.02434,-0.19262 0,-0.14817 -0.05821,-0.22331 -0.05821,-0.0751 -0.168275,-0.0751 -0.07832,0 -0.141817,0.0423 -0.06244,0.0413 -0.106892,0.11218 -0.04445,0.0699 -0.06879,0.16193 -0.02434,0.0921 -0.02434,0.19262 0,0.14816 0.05715,0.22436 0.05821,0.0752 0.169333,0.0752 z m -0.01693,0.1471 q -0.08784,0 -0.160867,-0.0296 -0.07303,-0.0307 -0.125942,-0.0878 -0.05292,-0.0572 -0.08255,-0.1397 -0.02963,-0.0825 -0.02963,-0.18838 0,-0.13547 0.04233,-0.25506 0.04233,-0.1196 0.115358,-0.20955 0.07408,-0.09 0.173567,-0.14182 0.100542,-0.0519 0.216959,-0.0519 0.08784,0 0.160867,0.0307 0.07303,0.0296 0.125942,0.0868 0.05292,0.0571 0.08255,0.14075 0.02963,0.0825 0.02963,0.18733 0,0.13441 -0.04233,0.254 -0.04233,0.11959 -0.116417,0.20955 -0.07303,0.09 -0.173567,0.14288 -0.100542,0.0519 -0.2159,0.0519 z" />
      <path
         id="path1116"
         style="font-style:italic;font-variant:normal;font-weight:normal;font-stretch:normal;font-size:2.11667px;font-family:Lato;-inkscape-font-specification:'Lato Italic';text-align:center;text-anchor:middle;fill:#1a1a1a;stroke-width:0.264583"
         d="m 49.729806,148.74927 -0.106892,0.88053 -0.04868,0.21908 q -0.01799,0.0794 -0.09737,0.0794 h -0.07408 l 0.142876,-1.17581 -0.105834,-0.0138 q -0.01799,-0.005 -0.02857,-0.0148 -0.01058,-0.01 -0.01058,-0.0275 l 0.0085,-0.0825 h 0.153459 l 0.0127,-0.10372 q 0.01164,-0.0921 0.04551,-0.16298 0.03492,-0.072 0.08678,-0.12065 0.05292,-0.0497 0.119592,-0.0751 0.06773,-0.0254 0.144992,-0.0254 0.06562,0 0.119591,0.0212 l -0.01799,0.0974 q -0.0021,0.0148 -0.01482,0.019 -0.01164,0.003 -0.03069,0.003 -0.0095,0 -0.02117,0 -0.01058,-0.001 -0.02328,-0.001 -0.04551,0 -0.08467,0.0138 -0.0381,0.0127 -0.06773,0.0423 -0.02963,0.0296 -0.04974,0.0773 -0.02011,0.0476 -0.02857,0.11642 l -0.0127,0.0984 h 0.267759 l -0.01799,0.13547 z" />
      <path
         id="path1118"
         style="font-style:italic;font-variant:normal;font-weight:normal;font-stretch:normal;font-size:2.11667px;font-family:Lato;-inkscape-font-specification:'Lato Italic';text-align:center;text-anchor:middle;fill:#1a1a1a;stroke-width:0.264583"
         d="m 50.142556,149.46259 q 0,-0.006 0,-0.0159 0.0011,-0.0106 0.0021,-0.0296 0.0021,-0.019 0.0053,-0.0497 0.0032,-0.0307 0.0095,-0.0804 l 0.06667,-0.53657 h -0.119591 q -0.01376,0 -0.02328,-0.007 -0.0085,-0.008 -0.0085,-0.0254 0,-0.003 0.0011,-0.0127 0.0011,-0.01 0.0021,-0.0212 0.0021,-0.0127 0.0032,-0.0254 0.0021,-0.0127 0.0032,-0.0243 l 0.1651,-0.0222 0.07937,-0.33125 q 0.0042,-0.0159 0.01588,-0.0254 0.01164,-0.0106 0.02857,-0.0106 h 0.09948 l -0.04657,0.36936 h 0.281517 l -0.01588,0.13653 h -0.282576 l -0.06456,0.52705 q -0.0053,0.0434 -0.0085,0.0699 -0.0021,0.0265 -0.0042,0.0423 -0.0011,0.0159 -0.0021,0.0222 0,0.006 0,0.01 0,0.054 0.02434,0.0804 0.0254,0.0254 0.06879,0.0254 0.02752,0 0.04868,-0.007 0.02117,-0.008 0.03598,-0.018 0.01587,-0.01 0.02646,-0.0169 0.01058,-0.008 0.01905,-0.008 0.0085,0 0.0127,0.004 0.0053,0.004 0.01058,0.0138 l 0.03916,0.09 q -0.0508,0.0455 -0.117475,0.072 -0.06562,0.0254 -0.132292,0.0254 -0.102659,0 -0.161926,-0.0561 -0.05927,-0.0561 -0.06138,-0.16298 z" />
      <path
         id="path1120"
         style="font-style:italic;font-variant:normal;font-weight:normal;font-stretch:normal;font-size:2.11667px;font-family:Lato;-inkscape-font-specification:'Lato Italic';text-align:center;text-anchor:middle;fill:#1a1a1a;stroke-width:0.264583"
         d="m 51.631631,148.82229 q 0,0.0699 -0.02857,0.12912 -0.02858,0.0582 -0.104775,0.10583 -0.0762,0.0466 -0.20955,0.0815 -0.13335,0.0349 -0.342901,0.0561 -0.0011,0.0116 -0.0011,0.0233 0,0.0106 0,0.0222 0,0.14181 0.06138,0.21695 0.06244,0.0741 0.187326,0.0741 0.0508,0 0.08996,-0.0106 0.04022,-0.0106 0.07091,-0.0254 0.03175,-0.0159 0.05503,-0.0339 0.02434,-0.0191 0.04445,-0.0339 0.02011,-0.0159 0.03704,-0.0265 0.01693,-0.0106 0.03387,-0.0106 0.01905,0 0.03493,0.018 l 0.04657,0.0582 q -0.05398,0.0561 -0.105833,0.0963 -0.0508,0.0392 -0.104775,0.0656 -0.05398,0.0265 -0.113242,0.0381 -0.05821,0.0127 -0.125942,0.0127 -0.09208,0 -0.1651,-0.0307 -0.07303,-0.0307 -0.123826,-0.0868 -0.0508,-0.0572 -0.07832,-0.13758 -0.02752,-0.0804 -0.02752,-0.17992 0,-0.0825 0.01693,-0.16404 0.01799,-0.0825 0.0508,-0.15664 0.03387,-0.0741 0.08149,-0.13758 0.04868,-0.0635 0.110067,-0.10901 0.06244,-0.0466 0.136525,-0.073 0.07514,-0.0265 0.160867,-0.0265 0.08149,0 0.140759,0.0233 0.05927,0.0233 0.09737,0.0593 0.0381,0.036 0.05609,0.0794 0.01905,0.0434 0.01905,0.0825 z m -0.32385,-0.10901 q -0.06667,0 -0.122767,0.0275 -0.05609,0.0275 -0.09948,0.0762 -0.04339,0.0476 -0.07408,0.11324 -0.03069,0.0646 -0.04762,0.1397 0.162983,-0.0201 0.261409,-0.0455 0.09842,-0.0265 0.151342,-0.0561 0.05292,-0.0307 0.06985,-0.0656 0.01693,-0.0349 0.01693,-0.073 0,-0.019 -0.0085,-0.0392 -0.0085,-0.0212 -0.02752,-0.0381 -0.01799,-0.0169 -0.04763,-0.0275 -0.02963,-0.0117 -0.07197,-0.0117 z" />
      <path
         id="path1122"
         style="font-style:italic;font-variant:normal;font-weight:normal;font-stretch:normal;font-size:2.11667px;font-family:Lato;-inkscape-font-specification:'Lato Italic';text-align:center;text-anchor:middle;fill:#1a1a1a;stroke-width:0.264583"
         d="m 51.750161,149.66473 0.128059,-1.07315 h 0.09419 q 0.0635,0 0.0635,0.0635 l -0.01588,0.20743 q 0.08572,-0.14182 0.192617,-0.21378 0.10795,-0.072 0.223308,-0.072 0.119592,0 0.185209,0.0804 0.06668,0.0804 0.06668,0.23495 0,0.0212 -0.0011,0.0434 -0.0011,0.0222 -0.0042,0.0466 l -0.08043,0.68263 h -0.188384 l 0.08043,-0.68263 q 0.0021,-0.0212 0.0032,-0.0402 0.0021,-0.0201 0.0021,-0.0381 0,-0.0868 -0.03281,-0.12805 -0.03175,-0.0423 -0.100542,-0.0423 -0.0508,0 -0.103716,0.0275 -0.05186,0.0275 -0.100542,0.0783 -0.04868,0.0497 -0.09102,0.12171 -0.04127,0.0709 -0.07091,0.15875 l -0.06138,0.54504 z" />
      <path
         id="path1124"
         style="font-style:italic;font-variant:normal;font-weight:normal;font-stretch:normal;font-size:2.11667px;font-family:Lato;-inkscape-font-specification:'Lato Italic';text-align:center;text-anchor:middle;fill:#1a1a1a;stroke-width:0.264583"
         d="m 53.365176,149.46259 q 0,-0.006 0,-0.0159 0.0011,-0.0106 0.0021,-0.0296 0.0021,-0.019 0.0053,-0.0497 0.0032,-0.0307 0.0095,-0.0804 l 0.06668,-0.53657 h -0.119591 q -0.01376,0 -0.02328,-0.007 -0.0085,-0.008 -0.0085,-0.0254 0,-0.003 0.0011,-0.0127 0.0011,-0.01 0.0021,-0.0212 0.0021,-0.0127 0.0032,-0.0254 0.0021,-0.0127 0.0032,-0.0243 l 0.1651,-0.0222 0.07937,-0.33125 q 0.0042,-0.0159 0.01588,-0.0254 0.01164,-0.0106 0.02857,-0.0106 h 0.09948 l -0.04657,0.36936 h 0.281517 l -0.01588,0.13653 h -0.282576 l -0.06456,0.52705 q -0.0053,0.0434 -0.0085,0.0699 -0.0021,0.0265 -0.0042,0.0423 -0.0011,0.0159 -0.0021,0.0222 0,0.006 0,0.01 0,0.054 0.02434,0.0804 0.0254,0.0254 0.06879,0.0254 0.02752,0 0.04868,-0.007 0.02117,-0.008 0.03598,-0.018 0.01588,-0.01 0.02646,-0.0169 0.01058,-0.008 0.01905,-0.008 0.0085,0 0.0127,0.004 0.0053,0.004 0.01058,0.0138 l 0.03916,0.09 q -0.0508,0.0455 -0.117475,0.072 -0.06562,0.0254 -0.132292,0.0254 -0.102659,0 -0.161926,-0.0561 -0.05927,-0.0561 -0.06138,-0.16298 z" />
      <path
         id="path1126"
         style="font-style:italic;font-variant:normal;font-weight:normal;font-stretch:normal;font-size:2.11667px;font-family:Lato;-inkscape-font-specification:'Lato Italic';text-align:center;text-anchor:middle;fill:#1a1a1a;stroke-width:0.264583"
         d="m 54.78546,149.66473 h -0.09737 q -0.03704,0 -0.0508,-0.019 -0.0127,-0.019 -0.0127,-0.0466 l 0.01905,-0.21696 q -0.0381,0.0677 -0.08255,0.12277 -0.04339,0.055 -0.09313,0.0942 -0.04868,0.0381 -0.102658,0.0593 -0.05398,0.0212 -0.112184,0.0212 -0.0635,0 -0.115358,-0.0243 -0.05186,-0.0254 -0.0889,-0.073 -0.03598,-0.0487 -0.05609,-0.11854 -0.02011,-0.0709 -0.02011,-0.16192 0,-0.0952 0.02328,-0.18521 0.02434,-0.091 0.06773,-0.17145 0.04445,-0.0804 0.105834,-0.14711 0.06138,-0.0677 0.136525,-0.11642 0.0762,-0.0497 0.162983,-0.0762 0.08678,-0.0275 0.182034,-0.0275 0.06879,0 0.13335,0.0116 0.06562,0.0106 0.129117,0.0381 z m -0.461435,-0.14182 q 0.05186,0 0.101601,-0.0317 0.04974,-0.0328 0.09419,-0.09 0.04445,-0.0571 0.08255,-0.13546 0.03916,-0.0794 0.06879,-0.17357 l 0.04551,-0.3683 q -0.02328,-0.005 -0.04657,-0.006 -0.02223,-0.002 -0.04445,-0.002 -0.0635,0 -0.122767,0.0212 -0.05927,0.0201 -0.111125,0.0572 -0.05186,0.037 -0.09419,0.0889 -0.04233,0.0508 -0.07303,0.11218 -0.02963,0.0614 -0.04657,0.13124 -0.01693,0.0688 -0.01693,0.14181 0,0.25506 0.162983,0.25506 z" />
      <path
         id="path1128"
         style="font-style:italic;font-variant:normal;font-weight:normal;font-stretch:normal;font-size:2.11667px;font-family:Lato;-inkscape-font-specification:'Lato Italic';text-align:center;text-anchor:middle;fill:#1a1a1a;stroke-width:0.264583"
         d="m 55.083908,149.66473 0.189442,-1.55893 h 0.185209 l -0.189442,1.55893 z" />
      <path
         id="path1130"
         style="font-style:italic;font-variant:normal;font-weight:normal;font-stretch:normal;font-size:2.11667px;font-family:Lato;-inkscape-font-specification:'Lato Italic';text-align:center;text-anchor:middle;fill:#1a1a1a;stroke-width:0.264583"
         d="m 55.952799,148.1058 -0.112183,0.91758 h 0.03281 q 0.02117,0 0.03493,-0.005 0.01376,-0.006 0.03069,-0.0243 l 0.354542,-0.36301 q 0.01693,-0.0169 0.03281,-0.0275 0.01588,-0.0106 0.04127,-0.0106 h 0.166158 l -0.413809,0.42016 q -0.01588,0.0169 -0.03175,0.0318 -0.01482,0.0138 -0.03281,0.0243 0.01693,0.0127 0.02857,0.0296 0.01164,0.0169 0.02328,0.037 l 0.321734,0.52917 h -0.161925 q -0.02328,0 -0.0381,-0.008 -0.01376,-0.008 -0.0254,-0.0286 l -0.273051,-0.43921 q -0.01376,-0.0212 -0.02752,-0.0286 -0.0127,-0.007 -0.04233,-0.007 h -0.03598 l -0.06244,0.51224 h -0.186267 l 0.191559,-1.55893 z" />
      <path
         id="path1132"
         style="font-style:italic;font-variant:normal;font-weight:normal;font-stretch:normal;font-size:2.11667px;font-family:Lato;-inkscape-font-specification:'Lato Italic';text-align:center;text-anchor:middle;fill:#1a1a1a;stroke-width:0.264583"
         d="m 57.78054,149.66473 h -0.09737 q -0.03704,0 -0.0508,-0.019 -0.0127,-0.019 -0.0127,-0.0466 l 0.01905,-0.21696 q -0.0381,0.0677 -0.08255,0.12277 -0.04339,0.055 -0.09313,0.0942 -0.04868,0.0381 -0.102659,0.0593 -0.05397,0.0212 -0.112183,0.0212 -0.0635,0 -0.115359,-0.0243 -0.05186,-0.0254 -0.0889,-0.073 -0.03598,-0.0487 -0.05609,-0.11854 -0.02011,-0.0709 -0.02011,-0.16192 0,-0.0952 0.02328,-0.18521 0.02434,-0.091 0.06773,-0.17145 0.04445,-0.0804 0.105834,-0.14711 0.06138,-0.0677 0.136525,-0.11642 0.0762,-0.0497 0.162983,-0.0762 0.08678,-0.0275 0.182034,-0.0275 0.06879,0 0.13335,0.0116 0.06562,0.0106 0.129117,0.0381 z m -0.461434,-0.14182 q 0.05186,0 0.101601,-0.0317 0.04974,-0.0328 0.09419,-0.09 0.04445,-0.0571 0.08255,-0.13546 0.03916,-0.0794 0.06879,-0.17357 l 0.04551,-0.3683 q -0.02328,-0.005 -0.04657,-0.006 -0.02222,-0.002 -0.04445,-0.002 -0.0635,0 -0.122767,0.0212 -0.05927,0.0201 -0.111125,0.0572 -0.05186,0.037 -0.09419,0.0889 -0.04233,0.0508 -0.07303,0.11218 -0.02963,0.0614 -0.04657,0.13124 -0.01693,0.0688 -0.01693,0.14181 0,0.25506 0.162983,0.25506 z" />
      <path
         id="path1134"
         style="font-style:italic;font-variant:normal;font-weight:normal;font-stretch:normal;font-size:2.11667px;font-family:Lato;-inkscape-font-specification:'Lato Italic';text-align:center;text-anchor:middle;fill:#1a1a1a;stroke-width:0.264583"
         d="m 59.257973,148.89003 q -0.0011,0.0529 -0.01376,0.0952 -0.01164,0.0423 -0.02963,0.0783 -0.01799,0.036 -0.03916,0.0677 -0.02117,0.0318 -0.03916,0.0635 -0.01799,0.0318 -0.03069,0.0656 -0.01164,0.0328 -0.01164,0.072 0,0.0444 0.02117,0.0804 0.02223,0.036 0.04763,0.0741 0.02646,0.0381 0.04763,0.0836 0.02222,0.0445 0.02222,0.10583 0,0.0751 -0.03493,0.14182 -0.03493,0.0677 -0.09948,0.11959 -0.06456,0.0519 -0.157692,0.0815 -0.09208,0.0307 -0.207433,0.0307 -0.09208,0 -0.168276,-0.019 -0.07514,-0.019 -0.129117,-0.054 -0.05292,-0.0349 -0.08149,-0.0847 -0.02963,-0.0487 -0.02963,-0.10795 0,-0.0836 0.04339,-0.14393 0.04339,-0.0603 0.1143,-0.0995 0.07091,-0.0392 0.160867,-0.0572 0.09102,-0.018 0.185209,-0.018 0.0381,0 0.07514,0.003 0.0381,0.003 0.07514,0.008 -0.0095,-0.0201 -0.01588,-0.0413 -0.0053,-0.0222 -0.0053,-0.0476 0,-0.0328 0.0095,-0.0677 0.01058,-0.0349 0.03387,-0.0783 -0.04022,0.0275 -0.08996,0.0423 -0.04974,0.0148 -0.113242,0.0148 -0.06138,0 -0.115359,-0.0201 -0.05292,-0.0201 -0.09313,-0.0593 -0.04022,-0.0392 -0.0635,-0.0974 -0.02328,-0.0593 -0.02328,-0.13758 0,-0.0762 0.02752,-0.14923 0.02858,-0.0741 0.08255,-0.13123 0.05397,-0.0582 0.133351,-0.0931 0.07937,-0.0349 0.183092,-0.0349 0.116416,0 0.202142,0.055 h 0.291042 l -0.0085,0.0624 q -0.0021,0.018 -0.0127,0.0328 -0.0095,0.0148 -0.02963,0.018 l -0.133351,0.0233 q 0.0095,0.0275 0.01482,0.0582 0.0053,0.0296 0.0053,0.0635 z m -0.408518,0.29104 q 0.05715,0 0.100542,-0.0243 0.04339,-0.0254 0.07302,-0.0656 0.03069,-0.0413 0.04657,-0.0921 0.01588,-0.0508 0.01588,-0.10266 0,-0.0931 -0.04763,-0.14076 -0.04657,-0.0476 -0.129117,-0.0476 -0.05715,0 -0.100542,0.0233 -0.04339,0.0233 -0.07303,0.0624 -0.02963,0.0392 -0.04551,0.0889 -0.01482,0.0497 -0.01482,0.10372 0,0.0952 0.04551,0.14499 0.04657,0.0497 0.129116,0.0497 z m 0.211667,0.51012 q 0,-0.0275 -0.0053,-0.0508 -0.0053,-0.0243 -0.01376,-0.0455 -0.05715,-0.01 -0.10795,-0.0138 -0.04974,-0.004 -0.09419,-0.004 -0.08678,0 -0.150283,0.0159 -0.0635,0.0148 -0.104775,0.0402 -0.04127,0.0254 -0.06138,0.0582 -0.02011,0.0339 -0.02011,0.0699 0,0.0762 0.0635,0.11641 0.06456,0.0402 0.182034,0.0402 0.06985,0 0.127,-0.019 0.05821,-0.018 0.09842,-0.0487 0.04127,-0.0307 0.0635,-0.072 0.02328,-0.0413 0.02328,-0.0868 z" />
      <path
         id="path1136"
         style="font-style:italic;font-variant:normal;font-weight:normal;font-stretch:normal;font-size:2.11667px;font-family:Lato;-inkscape-font-specification:'Lato Italic';text-align:center;text-anchor:middle;fill:#1a1a1a;stroke-width:0.264583"
         d="m 59.452704,149.66473 0.129117,-1.07315 h 0.09419 q 0.02963,0 0.04657,0.0138 0.01693,0.0138 0.01693,0.0423 0,0.004 -0.0011,0.0127 0,0.007 -0.0011,0.0159 0,0.008 -0.0011,0.0148 0,0.006 0,0.007 l -0.01482,0.19473 q 0.06879,-0.14817 0.153458,-0.2286 0.08572,-0.0804 0.179917,-0.0804 0.04445,0 0.0889,0.019 l -0.03387,0.18097 q -0.04974,-0.0201 -0.09631,-0.0201 -0.102658,0 -0.183092,0.10055 -0.08043,0.0995 -0.134408,0.30268 l -0.05927,0.49742 z" />
      <path
         id="path1138"
         style="font-style:italic;font-variant:normal;font-weight:normal;font-stretch:normal;font-size:2.11667px;font-family:Lato;-inkscape-font-specification:'Lato Italic';text-align:center;text-anchor:middle;fill:#1a1a1a;stroke-width:0.264583"
         d="m 61.01057,148.82229 q 0,0.0699 -0.02858,0.12912 -0.02857,0.0582 -0.104775,0.10583 -0.0762,0.0466 -0.209551,0.0815 -0.13335,0.0349 -0.3429,0.0561 -0.0011,0.0116 -0.0011,0.0233 0,0.0106 0,0.0222 0,0.14181 0.06138,0.21695 0.06244,0.0741 0.187325,0.0741 0.0508,0 0.08996,-0.0106 0.04022,-0.0106 0.07091,-0.0254 0.03175,-0.0159 0.05503,-0.0339 0.02434,-0.0191 0.04445,-0.0339 0.02011,-0.0159 0.03704,-0.0265 0.01693,-0.0106 0.03387,-0.0106 0.01905,0 0.03493,0.018 l 0.04657,0.0582 q -0.05397,0.0561 -0.105834,0.0963 -0.0508,0.0392 -0.104775,0.0656 -0.05398,0.0265 -0.113242,0.0381 -0.05821,0.0127 -0.125941,0.0127 -0.09208,0 -0.165101,-0.0307 -0.07303,-0.0307 -0.123825,-0.0868 -0.0508,-0.0572 -0.07832,-0.13758 -0.02752,-0.0804 -0.02752,-0.17992 0,-0.0825 0.01693,-0.16404 0.01799,-0.0825 0.0508,-0.15664 0.03387,-0.0741 0.08149,-0.13758 0.04868,-0.0635 0.110067,-0.10901 0.06244,-0.0466 0.136525,-0.073 0.07514,-0.0265 0.160867,-0.0265 0.08149,0 0.140758,0.0233 0.05927,0.0233 0.09737,0.0593 0.0381,0.036 0.05609,0.0794 0.01905,0.0434 0.01905,0.0825 z m -0.323851,-0.10901 q -0.06667,0 -0.122766,0.0275 -0.05609,0.0275 -0.09948,0.0762 -0.04339,0.0476 -0.07408,0.11324 -0.03069,0.0646 -0.04762,0.1397 0.162983,-0.0201 0.261408,-0.0455 0.09842,-0.0265 0.151342,-0.0561 0.05292,-0.0307 0.06985,-0.0656 0.01693,-0.0349 0.01693,-0.073 0,-0.019 -0.0085,-0.0392 -0.0085,-0.0212 -0.02752,-0.0381 -0.01799,-0.0169 -0.04763,-0.0275 -0.02963,-0.0117 -0.07197,-0.0117 z" />
      <path
         id="path1140"
         style="font-style:italic;font-variant:normal;font-weight:normal;font-stretch:normal;font-size:2.11667px;font-family:Lato;-inkscape-font-specification:'Lato Italic';text-align:center;text-anchor:middle;fill:#1a1a1a;stroke-width:0.264583"
         d="m 61.917561,149.66473 h -0.09737 q -0.03704,0 -0.0508,-0.019 -0.0127,-0.019 -0.0127,-0.0466 l 0.01905,-0.21696 q -0.0381,0.0677 -0.08255,0.12277 -0.04339,0.055 -0.09313,0.0942 -0.04868,0.0381 -0.102658,0.0593 -0.05398,0.0212 -0.112184,0.0212 -0.0635,0 -0.115358,-0.0243 -0.05186,-0.0254 -0.0889,-0.073 -0.03598,-0.0487 -0.05609,-0.11854 -0.02011,-0.0709 -0.02011,-0.16192 0,-0.0952 0.02328,-0.18521 0.02434,-0.091 0.06773,-0.17145 0.04445,-0.0804 0.105834,-0.14711 0.06138,-0.0677 0.136525,-0.11642 0.0762,-0.0497 0.162983,-0.0762 0.08678,-0.0275 0.182034,-0.0275 0.06879,0 0.13335,0.0116 0.06562,0.0106 0.129117,0.0381 z m -0.461434,-0.14182 q 0.05186,0 0.1016,-0.0317 0.04974,-0.0328 0.09419,-0.09 0.04445,-0.0571 0.08255,-0.13546 0.03916,-0.0794 0.06879,-0.17357 l 0.04551,-0.3683 q -0.02328,-0.005 -0.04657,-0.006 -0.02222,-0.002 -0.04445,-0.002 -0.0635,0 -0.122767,0.0212 -0.05927,0.0201 -0.111125,0.0572 -0.05186,0.037 -0.09419,0.0889 -0.04233,0.0508 -0.07303,0.11218 -0.02963,0.0614 -0.04657,0.13124 -0.01693,0.0688 -0.01693,0.14181 0,0.25506 0.162984,0.25506 z" />
      <path
         id="path1142"
         style="font-style:italic;font-variant:normal;font-weight:normal;font-stretch:normal;font-size:2.11667px;font-family:Lato;-inkscape-font-specification:'Lato Italic';text-align:center;text-anchor:middle;fill:#1a1a1a;stroke-width:0.264583"
         d="m 62.291151,149.46259 q 0,-0.006 0,-0.0159 0.0011,-0.0106 0.0021,-0.0296 0.0021,-0.019 0.0053,-0.0497 0.0032,-0.0307 0.0095,-0.0804 l 0.06667,-0.53657 h -0.119592 q -0.01376,0 -0.02328,-0.007 -0.0085,-0.008 -0.0085,-0.0254 0,-0.003 0.0011,-0.0127 0.0011,-0.01 0.0021,-0.0212 0.0021,-0.0127 0.0032,-0.0254 0.0021,-0.0127 0.0032,-0.0243 l 0.165101,-0.0222 0.07937,-0.33125 q 0.0042,-0.0159 0.01588,-0.0254 0.01164,-0.0106 0.02857,-0.0106 h 0.09948 l -0.04657,0.36936 h 0.281517 l -0.01588,0.13653 h -0.282576 l -0.06456,0.52705 q -0.0053,0.0434 -0.0085,0.0699 -0.0021,0.0265 -0.0042,0.0423 -0.0011,0.0159 -0.0021,0.0222 0,0.006 0,0.01 0,0.054 0.02434,0.0804 0.0254,0.0254 0.06879,0.0254 0.02752,0 0.04868,-0.007 0.02117,-0.008 0.03598,-0.018 0.01588,-0.01 0.02646,-0.0169 0.01058,-0.008 0.01905,-0.008 0.0085,0 0.0127,0.004 0.0053,0.004 0.01058,0.0138 l 0.03916,0.09 q -0.0508,0.0455 -0.117476,0.072 -0.06562,0.0254 -0.132291,0.0254 -0.102659,0 -0.161926,-0.0561 -0.05927,-0.0561 -0.06138,-0.16298 z" />
      <path
         id="path1144"
         style="font-style:italic;font-variant:normal;font-weight:normal;font-stretch:normal;font-size:2.11667px;font-family:Lato;-inkscape-font-specification:'Lato Italic';text-align:center;text-anchor:middle;fill:#1a1a1a;stroke-width:0.264583"
         d="m 64.056449,149.66473 q -0.03704,0 -0.0508,-0.019 -0.0127,-0.019 -0.0127,-0.0466 l 0.02011,-0.22331 q -0.04022,0.0688 -0.08784,0.12489 -0.04762,0.0561 -0.100542,0.0963 -0.05186,0.0392 -0.109009,0.0614 -0.05609,0.0212 -0.1143,0.0212 -0.137583,0 -0.213783,-0.0995 -0.07514,-0.10054 -0.07514,-0.29104 0,-0.0868 0.01799,-0.17357 0.01799,-0.0868 0.0508,-0.16616 0.03387,-0.0794 0.08043,-0.14711 0.04762,-0.0688 0.104775,-0.11853 0.05821,-0.0497 0.125942,-0.0783 0.06773,-0.0286 0.141817,-0.0286 0.07832,0 0.142875,0.0307 0.06562,0.0307 0.111125,0.0878 l 0.07303,-0.58949 h 0.185209 l -0.192617,1.55893 z m -0.384175,-0.13653 q 0.0508,0 0.1016,-0.0307 0.05186,-0.0318 0.09948,-0.0868 0.04868,-0.0561 0.08996,-0.13229 0.04233,-0.0773 0.07302,-0.16828 l 0.03493,-0.28363 q -0.04022,-0.0561 -0.09631,-0.0794 -0.05609,-0.0233 -0.113241,-0.0233 -0.08361,0 -0.151342,0.0497 -0.06668,0.0497 -0.1143,0.12912 -0.04657,0.0783 -0.07197,0.17568 -0.0254,0.0974 -0.0254,0.19156 0,0.12594 0.04551,0.19262 0.04551,0.0656 0.128059,0.0656 z" />
      <path
         id="path1146"
         style="font-style:italic;font-variant:normal;font-weight:normal;font-stretch:normal;font-size:2.11667px;font-family:Lato;-inkscape-font-specification:'Lato Italic';text-align:center;text-anchor:middle;fill:#1a1a1a;stroke-width:0.264583"
         d="m 65.302106,148.82229 q 0,0.0699 -0.02857,0.12912 -0.02858,0.0582 -0.104775,0.10583 -0.0762,0.0466 -0.20955,0.0815 -0.13335,0.0349 -0.342901,0.0561 -0.0011,0.0116 -0.0011,0.0233 0,0.0106 0,0.0222 0,0.14181 0.06138,0.21695 0.06244,0.0741 0.187326,0.0741 0.0508,0 0.08996,-0.0106 0.04022,-0.0106 0.07091,-0.0254 0.03175,-0.0159 0.05503,-0.0339 0.02434,-0.0191 0.04445,-0.0339 0.02011,-0.0159 0.03704,-0.0265 0.01693,-0.0106 0.03387,-0.0106 0.01905,0 0.03492,0.018 l 0.04657,0.0582 q -0.05398,0.0561 -0.105833,0.0963 -0.0508,0.0392 -0.104775,0.0656 -0.05398,0.0265 -0.113242,0.0381 -0.05821,0.0127 -0.125942,0.0127 -0.09208,0 -0.1651,-0.0307 -0.07303,-0.0307 -0.123826,-0.0868 -0.0508,-0.0572 -0.07832,-0.13758 -0.02752,-0.0804 -0.02752,-0.17992 0,-0.0825 0.01693,-0.16404 0.01799,-0.0825 0.0508,-0.15664 0.03387,-0.0741 0.08149,-0.13758 0.04868,-0.0635 0.110067,-0.10901 0.06244,-0.0466 0.136525,-0.073 0.07514,-0.0265 0.160867,-0.0265 0.08149,0 0.140759,0.0233 0.05927,0.0233 0.09737,0.0593 0.0381,0.036 0.05609,0.0794 0.01905,0.0434 0.01905,0.0825 z m -0.32385,-0.10901 q -0.06668,0 -0.122767,0.0275 -0.05609,0.0275 -0.09948,0.0762 -0.04339,0.0476 -0.07408,0.11324 -0.03069,0.0646 -0.04762,0.1397 0.162984,-0.0201 0.261409,-0.0455 0.09842,-0.0265 0.151342,-0.0561 0.05292,-0.0307 0.06985,-0.0656 0.01693,-0.0349 0.01693,-0.073 0,-0.019 -0.0085,-0.0392 -0.0085,-0.0212 -0.02752,-0.0381 -0.01799,-0.0169 -0.04762,-0.0275 -0.02963,-0.0117 -0.07197,-0.0117 z" />
      <path
         id="path1148"
         style="font-style:italic;font-variant:normal;font-weight:normal;font-stretch:normal;font-size:2.11667px;font-family:Lato;-inkscape-font-specification:'Lato Italic';text-align:center;text-anchor:middle;fill:#1a1a1a;stroke-width:0.264583"
         d="m 66.209097,149.66473 h -0.09737 q -0.03704,0 -0.0508,-0.019 -0.0127,-0.019 -0.0127,-0.0466 l 0.01905,-0.21696 q -0.0381,0.0677 -0.08255,0.12277 -0.04339,0.055 -0.09313,0.0942 -0.04868,0.0381 -0.102658,0.0593 -0.05398,0.0212 -0.112184,0.0212 -0.0635,0 -0.115358,-0.0243 -0.05186,-0.0254 -0.0889,-0.073 -0.03598,-0.0487 -0.05609,-0.11854 -0.02011,-0.0709 -0.02011,-0.16192 0,-0.0952 0.02328,-0.18521 0.02434,-0.091 0.06773,-0.17145 0.04445,-0.0804 0.105834,-0.14711 0.06138,-0.0677 0.136525,-0.11642 0.0762,-0.0497 0.162984,-0.0762 0.08678,-0.0275 0.182033,-0.0275 0.06879,0 0.133351,0.0116 0.06562,0.0106 0.129116,0.0381 z m -0.461434,-0.14182 q 0.05186,0 0.1016,-0.0317 0.04974,-0.0328 0.09419,-0.09 0.04445,-0.0571 0.08255,-0.13546 0.03916,-0.0794 0.06879,-0.17357 l 0.04551,-0.3683 q -0.02328,-0.005 -0.04657,-0.006 -0.02223,-0.002 -0.04445,-0.002 -0.0635,0 -0.122767,0.0212 -0.05927,0.0201 -0.111125,0.0572 -0.05186,0.037 -0.09419,0.0889 -0.04233,0.0508 -0.07303,0.11218 -0.02963,0.0614 -0.04657,0.13124 -0.01693,0.0688 -0.01693,0.14181 0,0.25506 0.162984,0.25506 z" />
      <path
         id="path1150"
         style="font-style:italic;font-variant:normal;font-weight:normal;font-stretch:normal;font-size:2.11667px;font-family:Lato;-inkscape-font-specification:'Lato Italic';text-align:center;text-anchor:middle;fill:#1a1a1a;stroke-width:0.264583"
         d="m 66.507545,149.66473 0.189442,-1.55893 h 0.185209 l -0.189442,1.55893 z" />
      <path
         id="path1152"
         style="font-style:italic;font-variant:normal;font-weight:normal;font-stretch:normal;font-size:2.11667px;font-family:Lato;-inkscape-font-specification:'Lato Italic';text-align:center;text-anchor:middle;fill:#1a1a1a;stroke-width:0.264583"
         d="m 66.964745,149.54831 q 0,-0.0275 0.0095,-0.0519 0.01058,-0.0243 0.02857,-0.0423 0.01799,-0.018 0.04128,-0.0286 0.02434,-0.0106 0.05292,-0.0106 0.02752,0 0.0508,0.0106 0.02434,0.0106 0.04233,0.0286 0.01799,0.018 0.02857,0.0423 0.01058,0.0243 0.01058,0.0519 0,0.0286 -0.01058,0.0529 -0.01058,0.0233 -0.02857,0.0413 -0.01799,0.018 -0.04233,0.0275 -0.02328,0.0106 -0.0508,0.0106 -0.02858,0 -0.05292,-0.0106 -0.02328,-0.01 -0.04128,-0.0275 -0.01799,-0.018 -0.02857,-0.0413 -0.0095,-0.0243 -0.0095,-0.0529 z" />
      <path
         id="path1154"
         style="font-style:italic;font-variant:normal;font-weight:normal;font-stretch:normal;font-size:2.11667px;font-family:Lato;-inkscape-font-specification:'Lato Italic';text-align:center;text-anchor:middle;fill:#1a1a1a;stroke-width:0.264583"
         d="m 67.666418,148.15025 -0.0381,0.30586 -0.03598,0.16404 q -0.0074,0.0328 -0.02434,0.0508 -0.01588,0.018 -0.04657,0.018 -0.02752,0 -0.03916,-0.018 -0.01164,-0.018 -0.01164,-0.0508 v -0.16404 l 0.03916,-0.30586 z m 0.3302,0 -0.0381,0.30586 -0.03598,0.16404 q -0.0074,0.0328 -0.02434,0.0508 -0.01588,0.018 -0.04657,0.018 -0.02752,0 -0.03916,-0.018 -0.01164,-0.018 -0.01164,-0.0508 v -0.16404 l 0.03916,-0.30586 z" />
    </g>
  </g>
</svg>
