<?xml version="1.0" encoding="UTF-8" standalone="no"?>
<svg
   xmlns:dc="http://purl.org/dc/elements/1.1/"
   xmlns:cc="http://creativecommons.org/ns#"
   xmlns:rdf="http://www.w3.org/1999/02/22-rdf-syntax-ns#"
   xmlns:svg="http://www.w3.org/2000/svg"
   xmlns="http://www.w3.org/2000/svg"
   xmlns:sodipodi="http://sodipodi.sourceforge.net/DTD/sodipodi-0.dtd"
   xmlns:inkscape="http://www.inkscape.org/namespaces/inkscape"
   sodipodi:docname="logoETVIZnoQuoteobject.svg"
   inkscape:version="1.0 (4035a4fb49, 2020-05-01)"
   id="svg8"
   version="1.1"
   viewBox="0 0 31.618233 29.259"
   height="29.259001mm"
   width="31.618235mm">
  <defs
     id="defs2" />
  <sodipodi:namedview
     inkscape:window-maximized="1"
     inkscape:window-y="22"
     inkscape:window-x="0"
     inkscape:window-height="1058"
     inkscape:window-width="1920"
     fit-margin-bottom="2"
     fit-margin-right="2"
     fit-margin-left="2"
     fit-margin-top="2"
     showgrid="false"
     inkscape:document-rotation="0"
     inkscape:current-layer="layer1"
     inkscape:document-units="mm"
     inkscape:cy="61.262119"
     inkscape:cx="47.365335"
     inkscape:zoom="3.959798"
     inkscape:pageshadow="2"
     inkscape:pageopacity="0.0"
     borderopacity="1.0"
     bordercolor="#666666"
     pagecolor="#ffffff"
     id="base" />
  <metadata
     id="metadata5">
    <rdf:RDF>
      <cc:Work
         rdf:about="">
        <dc:format>image/svg+xml</dc:format>
        <dc:type
           rdf:resource="http://purl.org/dc/dcmitype/StillImage" />
        <dc:title></dc:title>
      </cc:Work>
    </rdf:RDF>
  </metadata>
  <g
     transform="translate(-37.965393,-119.38245)"
     id="layer1"
     inkscape:groupmode="layer"
     inkscape:label="Layer 1">
    <g
       id="g865"
       transform="translate(-0.1889029)">
      <g
         style="font-style:normal;font-variant:normal;font-weight:normal;font-stretch:normal;font-size:11.2889px;line-height:1.25;font-family:Helvetica;-inkscape-font-specification:Helvetica;letter-spacing:0px;word-spacing:0px;stroke-width:0.264583"
         id="text844"
         aria-label="ETViz">
        <path
           id="path1824"
           style="font-style:normal;font-variant:normal;font-weight:normal;font-stretch:normal;font-size:11.2889px;font-family:Lato;-inkscape-font-specification:Lato;stroke-width:0.264583"
           d="m 45.138345,134.92313 v 0.89182 h -3.883382 v 2.68676 h 3.143959 v 0.85796 h -3.143959 v 2.76013 h 3.883382 v 0.89183 h -4.98405 v -8.0885 z" />
        <path
           id="path1826"
           style="font-style:normal;font-variant:normal;font-weight:normal;font-stretch:normal;font-size:11.2889px;font-family:Lato;-inkscape-font-specification:Lato;stroke-width:0.264583"
           d="m 52.222123,134.92313 v 0.92005 h -2.613381 v 7.16845 h -1.095023 v -7.16845 H 45.88905 v -0.92005 z" />
        <path
           id="path1828"
           style="font-style:normal;font-variant:normal;font-weight:normal;font-stretch:normal;font-size:11.2889px;font-family:Lato;-inkscape-font-specification:Lato;stroke-width:0.264583"
           d="m 52.436592,134.92313 h 0.87489 q 0.146756,0 0.237067,0.0734 0.09031,0.0734 0.135467,0.18626 l 2.286002,5.70654 q 0.07902,0.19192 0.141111,0.41769 0.06773,0.22578 0.129823,0.46849 0.0508,-0.24271 0.107244,-0.46849 0.06209,-0.22577 0.141111,-0.41769 l 2.274714,-5.70654 q 0.03951,-0.096 0.135467,-0.17497 0.09596,-0.0847 0.237067,-0.0847 h 0.880534 l -3.296359,8.0885 h -0.987779 z" />
        <path
           id="path1830"
           style="font-style:normal;font-variant:normal;font-weight:normal;font-stretch:normal;font-size:11.2889px;font-family:Lato;-inkscape-font-specification:Lato;stroke-width:0.264583"
           d="m 62.009562,137.2938 v 5.71783 H 61.00485 v -5.71783 z m 0.225778,-1.79494 q 0,0.14676 -0.06209,0.27658 -0.05644,0.12418 -0.158045,0.22578 -0.09595,0.096 -0.225778,0.1524 -0.129822,0.0564 -0.276578,0.0564 -0.146755,0 -0.276578,-0.0564 -0.124178,-0.0564 -0.225778,-0.1524 -0.09596,-0.1016 -0.1524,-0.22578 -0.05644,-0.12982 -0.05644,-0.27658 0,-0.14675 0.05644,-0.27657 0.05644,-0.13547 0.1524,-0.23143 0.1016,-0.1016 0.225778,-0.15804 0.129823,-0.0565 0.276578,-0.0565 0.146756,0 0.276578,0.0565 0.129823,0.0564 0.225778,0.15804 0.101601,0.096 0.158045,0.23143 0.06209,0.12982 0.06209,0.27657 z" />
        <path
           id="path1832"
           style="font-style:normal;font-variant:normal;font-weight:normal;font-stretch:normal;font-size:11.2889px;font-family:Lato;-inkscape-font-specification:Lato;stroke-width:0.264583"
           d="m 67.772529,137.72278 q 0,0.10724 -0.03951,0.20884 -0.03951,0.096 -0.1016,0.17498 l -3.093159,4.12045 h 3.121381 v 0.78458 h -4.306715 v -0.41769 q 0,-0.0734 0.03387,-0.16934 0.03951,-0.1016 0.107245,-0.19191 l 3.110092,-4.14867 h -3.076225 v -0.79022 h 4.244626 z" />
      </g>
      <path
         style="clip-rule:evenodd;stroke-width:0.0264583;image-rendering:optimizeQuality;shape-rendering:geometricPrecision;text-rendering:geometricPrecision"
         fill-rule="nonzero"
         d="m 58.209224,122.8728 c 1.450975,0.97721 2.701607,2.39379 3.649741,4.11474 l 0.09218,0.16749 -0.09218,0.16721 c -0.948134,1.72096 -2.198766,3.13754 -3.649741,4.11475 -1.415335,0.95282 -3.020986,1.49032 -4.725061,1.49032 -1.703467,0 -3.309408,-0.5375 -4.724426,-1.49032 -1.451266,-0.97721 -2.701898,-2.39379 -3.649741,-4.11475 l -0.09218,-0.16721 0.09218,-0.16749 c 0.947817,-1.72095 2.198475,-3.13753 3.649741,-4.11474 1.415018,-0.95282 3.020986,-1.49035 4.724426,-1.49035 1.704075,0 3.309726,0.53753 4.725061,1.49035 z m -4.81412,1.56533 c 0.979699,0 1.847533,0.48032 2.380985,1.21814 -0.428783,-0.59315 -1.073467,-1.01939 -1.818798,-1.16409 -0.20029,0.30065 -0.317818,0.66471 -0.317818,1.05754 0,1.03063 0.808144,1.86595 1.805041,1.86595 0.319669,0 0.619998,-0.0859 0.880612,-0.23657 0.0041,0.0647 0.0066,0.12999 0.0066,0.19593 0,1.62189 -1.315032,2.93661 -2.93661,2.93661 -1.621895,0 -2.936901,-1.31472 -2.936901,-2.93661 0,-1.6219 1.314979,-2.93688 2.936875,-2.93688 z m 2.382838,1.22033 c 0.01064,0.015 0.02125,0.0303 0.03188,0.0453 -0.01064,-0.015 -0.02125,-0.0303 -0.03188,-0.0453 z m 0.03469,0.0497 z m 0.213122,0.36124 z m 0.02627,0.0541 z m 0.114988,0.28062 c 0.0056,0.0159 0.01125,0.0322 0.01656,0.0481 -0.0053,-0.0162 -0.01093,-0.0322 -0.01656,-0.0481 z m 0.01905,0.0559 z m 0.09284,0.3597 z m 3.759728,0.33531 c -0.758454,-1.33094 -1.738153,-2.42502 -2.865649,-3.18442 -1.110032,-0.74687 -2.363469,-1.16846 -3.68882,-1.16846 -1.324689,0 -2.578444,0.42159 -3.688132,1.16846 -1.127522,0.7594 -2.107539,1.85346 -2.865967,3.18442 0.758428,1.33096 1.738445,2.42503 2.865967,3.18378 1.109688,0.74718 2.363443,1.16877 3.688159,1.16877 1.325297,0 2.578761,-0.42156 3.688793,-1.16877 1.127496,-0.75875 2.107195,-1.85282 2.865649,-3.18378 z"
         id="path848" />
    </g>
    <g
       style="font-style:normal;font-variant:normal;font-weight:normal;font-stretch:normal;font-size:2.18491px;line-height:1.25;font-family:'Helvetica 35 Thin';-inkscape-font-specification:'Helvetica 35 Thin, ';letter-spacing:0px;word-spacing:0px;stroke-width:0.273113"
       id="text869-4"
       transform="scale(1.0261973,0.97447149)"
       aria-label="Eye Tracking Visualization Tool">
      <path
         id="path1767"
         style="font-style:normal;font-variant:normal;font-weight:normal;font-stretch:normal;font-size:2.18491px;font-family:'Helvetica 35 Thin';-inkscape-font-specification:'Helvetica 35 Thin, ';text-align:center;text-anchor:middle;fill:#1a1a1a;stroke-width:0.273113"
         d="m 39.084762,149.97204 v -0.68599 h 0.896154 v -0.0832 h -0.896154 v -0.62411 h 0.952697 v -0.0832 h -1.048714 v 1.55973 h 1.059383 v -0.0832 z" />
      <path
         id="path1769"
         style="font-style:normal;font-variant:normal;font-weight:normal;font-stretch:normal;font-size:2.18491px;font-family:'Helvetica 35 Thin';-inkscape-font-specification:'Helvetica 35 Thin, ';text-align:center;text-anchor:middle;fill:#1a1a1a;stroke-width:0.273113"
         d="m 40.531411,150.04885 q -0.07255,0.21871 -0.116287,0.26458 -0.04054,0.0416 -0.09175,0.0565 -0.05441,0.0149 -0.141891,0.0149 v 0.0725 q 0.181365,0.004 0.262445,-0.0501 0.03521,-0.0309 0.06828,-0.0896 0.032,-0.0598 0.06294,-0.14189 l 0.480083,-1.24395 h -0.09388 l -0.384066,1.02524 v 0 l -0.417139,-1.02524 h -0.09815 z" />
      <path
         id="path1771"
         style="font-style:normal;font-variant:normal;font-weight:normal;font-stretch:normal;font-size:2.18491px;font-family:'Helvetica 35 Thin';-inkscape-font-specification:'Helvetica 35 Thin, ';text-align:center;text-anchor:middle;fill:#1a1a1a;stroke-width:0.273113"
         d="m 42.106082,149.50476 q 0.01387,-0.25178 -0.106685,-0.42141 -0.122687,-0.17283 -0.387266,-0.1771 -0.25071,0.004 -0.375532,0.18564 -0.124821,0.17923 -0.119487,0.4214 -0.0021,0.23791 0.123755,0.40007 0.124821,0.16323 0.371264,0.16856 0.410737,-0.005 0.485417,-0.40647 h -0.08322 q -0.07148,0.32966 -0.402202,0.33393 -0.206969,-0.002 -0.309387,-0.1547 -0.105618,-0.14722 -0.103485,-0.34992 z m -0.906823,-0.0726 q 0.016,-0.1739 0.120555,-0.31152 0.104551,-0.13762 0.292317,-0.14296 0.195233,0.005 0.301918,0.13763 0.104552,0.13335 0.108819,0.31685 z" />
      <path
         id="path1773"
         style="font-style:normal;font-variant:normal;font-weight:normal;font-stretch:normal;font-size:2.18491px;font-family:'Helvetica 35 Thin';-inkscape-font-specification:'Helvetica 35 Thin, ';text-align:center;text-anchor:middle;fill:#1a1a1a;stroke-width:0.273113"
         d="m 43.303089,148.57873 v 1.47652 h 0.09602 v -1.47652 h 0.551561 v -0.0832 h -1.195939 v 0.0832 z" />
      <path
         id="path1775"
         style="font-style:normal;font-variant:normal;font-weight:normal;font-stretch:normal;font-size:2.18491px;font-family:'Helvetica 35 Thin';-inkscape-font-specification:'Helvetica 35 Thin, ';text-align:center;text-anchor:middle;fill:#1a1a1a;stroke-width:0.273113"
         d="m 43.923996,148.93186 h -0.08215 v 1.12339 h 0.08215 v -0.61344 q 0.0075,-0.12482 0.03734,-0.19523 0.0288,-0.0693 0.08961,-0.12909 0.07895,-0.0736 0.162161,-0.0982 0.08108,-0.0213 0.148293,-0.0107 v -0.0832 q -0.154694,-0.004 -0.273114,0.0683 -0.120554,0.0736 -0.156827,0.18776 h -0.0075 z" />
      <path
         id="path1777"
         style="font-style:normal;font-variant:normal;font-weight:normal;font-stretch:normal;font-size:2.18491px;font-family:'Helvetica 35 Thin';-inkscape-font-specification:'Helvetica 35 Thin, ';text-align:center;text-anchor:middle;fill:#1a1a1a;stroke-width:0.273113"
         d="m 45.193548,149.41728 v 0.21016 q 0,0.0213 -0.01067,0.0821 -0.01387,0.0619 -0.05441,0.12909 -0.04161,0.0683 -0.126955,0.11629 -0.08321,0.0544 -0.227239,0.0544 -0.146159,-0.002 -0.218705,-0.0726 -0.07681,-0.0672 -0.07681,-0.17176 0.0021,-0.24111 0.30832,-0.26031 0.124822,-0.0128 0.240041,-0.0267 0.05761,-0.006 0.09922,-0.0213 0.04267,-0.0128 0.06721,-0.0395 z m 0.08321,-0.21871 q -0.0021,-0.16963 -0.122687,-0.23364 -0.117354,-0.0608 -0.27098,-0.0587 -0.404337,0 -0.427808,0.37127 h 0.08322 q 0.02987,-0.29765 0.344593,-0.29979 0.09815,0 0.160027,0.0245 0.06081,0.0288 0.09388,0.0651 0.03521,0.0373 0.04801,0.0725 0.01067,0.0373 0.01067,0.0587 0,0.0683 -0.0064,0.10775 -0.0085,0.0405 -0.04588,0.0672 -0.06614,0.0438 -0.333924,0.0587 -0.03307,0 -0.06828,0.004 -0.03521,0.007 -0.07148,0.016 -0.07255,0.0149 -0.13549,0.0523 -0.06188,0.0352 -0.09922,0.096 -0.03841,0.0651 -0.03841,0.1643 0.0021,0.1739 0.108818,0.24431 0.104552,0.0725 0.266713,0.0725 0.161095,-0.002 0.27098,-0.0768 0.106685,-0.0726 0.146159,-0.17283 h 0.0043 v 0.0587 q -0.0021,0.0704 0.0288,0.11415 0.0256,0.0501 0.121621,0.0501 0.03307,0 0.06828,-0.009 v -0.0704 q -0.03947,0.006 -0.06188,0.006 -0.05228,0 -0.06294,-0.0437 -0.0128,-0.0405 -0.01067,-0.0918 z" />
      <path
         id="path1779"
         style="font-style:normal;font-variant:normal;font-weight:normal;font-stretch:normal;font-size:2.18491px;font-family:'Helvetica 35 Thin';-inkscape-font-specification:'Helvetica 35 Thin, ';text-align:center;text-anchor:middle;fill:#1a1a1a;stroke-width:0.273113"
         d="m 46.469502,149.27965 q -0.0192,-0.19203 -0.148292,-0.28378 -0.126956,-0.0896 -0.314721,-0.0896 -0.249643,0.004 -0.383,0.1707 -0.132289,0.16323 -0.132289,0.4054 0,0.24111 0.121621,0.41608 0.122688,0.17816 0.393668,0.18349 0.185632,-0.002 0.316854,-0.11202 0.129089,-0.10881 0.156827,-0.31045 h -0.08321 q -0.02134,0.15789 -0.125888,0.25178 -0.105619,0.096 -0.264579,0.0982 -0.216571,-0.002 -0.323256,-0.15043 -0.109886,-0.14722 -0.109886,-0.3766 0,-0.20056 0.114153,-0.34886 0.108819,-0.15042 0.318989,-0.15576 0.156827,0 0.262445,0.0747 0.104551,0.0768 0.117353,0.22724 z" />
      <path
         id="path1781"
         style="font-style:normal;font-variant:normal;font-weight:normal;font-stretch:normal;font-size:2.18491px;font-family:'Helvetica 35 Thin';-inkscape-font-specification:'Helvetica 35 Thin, ';text-align:center;text-anchor:middle;fill:#1a1a1a;stroke-width:0.273113"
         d="m 46.679671,150.05525 h 0.08321 v -0.42354 l 0.254978,-0.21657 v 0 l 0.479016,0.64011 h 0.113086 l -0.525958,-0.70305 0.490752,-0.42034 h -0.119488 l -0.692386,0.59637 v 0 -1.03271 h -0.08321 z" />
      <path
         id="path1783"
         style="font-style:normal;font-variant:normal;font-weight:normal;font-stretch:normal;font-size:2.18491px;font-family:'Helvetica 35 Thin';-inkscape-font-specification:'Helvetica 35 Thin, ';text-align:center;text-anchor:middle;fill:#1a1a1a;stroke-width:0.273113"
         d="m 47.789196,150.05525 v -1.12339 h -0.08321 v 1.12339 z m 0,-1.33463 v -0.2251 h -0.08321 v 0.2251 z" />
      <path
         id="path1785"
         style="font-style:normal;font-variant:normal;font-weight:normal;font-stretch:normal;font-size:2.18491px;font-family:'Helvetica 35 Thin';-inkscape-font-specification:'Helvetica 35 Thin, ';text-align:center;text-anchor:middle;fill:#1a1a1a;stroke-width:0.273113"
         d="m 48.053775,150.05525 h 0.08215 v -0.60704 q 0,-0.21017 0.109886,-0.33925 0.106685,-0.12909 0.294451,-0.13123 0.114153,0.002 0.181364,0.0395 0.06614,0.0373 0.09388,0.0982 0.03094,0.0597 0.03947,0.12055 0.0043,0.0629 0.0043,0.10882 v 0.71052 h 0.08321 v -0.69452 q 0,-0.0544 -0.0043,-0.13122 -0.0085,-0.0747 -0.04588,-0.14829 -0.03521,-0.0747 -0.11842,-0.12482 -0.08215,-0.048 -0.231507,-0.0502 -0.133356,0 -0.244308,0.0672 -0.110953,0.0704 -0.156827,0.1995 h -0.0053 v -0.24111 h -0.08215 z" />
      <path
         id="path1787"
         style="font-style:normal;font-variant:normal;font-weight:normal;font-stretch:normal;font-size:2.18491px;font-family:'Helvetica 35 Thin';-inkscape-font-specification:'Helvetica 35 Thin, ';text-align:center;text-anchor:middle;fill:#1a1a1a;stroke-width:0.273113"
         d="m 49.622045,148.97773 q 0.208036,0.005 0.30832,0.14509 0.100284,0.13976 0.100284,0.33606 0,0.1963 -0.100284,0.33393 -0.100284,0.14616 -0.30832,0.14936 -0.196301,-0.003 -0.298718,-0.1451 -0.103485,-0.13762 -0.103485,-0.33819 0,-0.18776 0.101351,-0.33179 0.09815,-0.14402 0.300852,-0.14936 z m 0.410737,-0.0459 v 0.23471 h -0.0043 q -0.04801,-0.12909 -0.158961,-0.19524 -0.112019,-0.0651 -0.247509,-0.0651 -0.235774,0.004 -0.358462,0.16323 -0.125888,0.1579 -0.125888,0.3894 0,0.23791 0.119487,0.39367 0.120554,0.15896 0.364863,0.16109 0.285916,-0.002 0.40647,-0.25604 h 0.0043 v 0.25818 q 0,0.0288 -0.0043,0.0896 -0.0085,0.063 -0.04587,0.13549 -0.03734,0.0683 -0.120554,0.11629 -0.08215,0.0523 -0.229373,0.0544 -0.141891,0 -0.240041,-0.0661 -0.100284,-0.0651 -0.117354,-0.21124 h -0.08321 q 0.0128,0.1899 0.13549,0.27098 0.119487,0.0779 0.302986,0.0779 0.181364,0 0.282715,-0.0608 0.100284,-0.0587 0.144025,-0.14616 0.04374,-0.0875 0.05228,-0.16643 0.0064,-0.0789 0.0064,-0.11308 v -1.06472 z" />
      <path
         id="path1789"
         style="font-style:normal;font-variant:normal;font-weight:normal;font-stretch:normal;font-size:2.18491px;font-family:'Helvetica 35 Thin';-inkscape-font-specification:'Helvetica 35 Thin, ';text-align:center;text-anchor:middle;fill:#1a1a1a;stroke-width:0.273113"
         d="m 50.916135,148.49552 h -0.101351 l 0.581434,1.55973 h 0.110952 l 0.583567,-1.55973 h -0.09602 l -0.539827,1.47652 h -0.0043 z" />
      <path
         id="path1791"
         style="font-style:normal;font-variant:normal;font-weight:normal;font-stretch:normal;font-size:2.18491px;font-family:'Helvetica 35 Thin';-inkscape-font-specification:'Helvetica 35 Thin, ';text-align:center;text-anchor:middle;fill:#1a1a1a;stroke-width:0.273113"
         d="m 52.285971,150.05525 v -1.12339 h -0.08321 v 1.12339 z m 0,-1.33463 v -0.2251 h -0.08321 v 0.2251 z" />
      <path
         id="path1793"
         style="font-style:normal;font-variant:normal;font-weight:normal;font-stretch:normal;font-size:2.18491px;font-family:'Helvetica 35 Thin';-inkscape-font-specification:'Helvetica 35 Thin, ';text-align:center;text-anchor:middle;fill:#1a1a1a;stroke-width:0.273113"
         d="m 52.50681,149.68185 q 0.01067,0.1963 0.13549,0.29659 0.123754,0.10348 0.318988,0.10348 0.07575,0 0.154693,-0.016 0.07681,-0.0149 0.139758,-0.0501 0.06828,-0.0373 0.106685,-0.0982 0.03734,-0.0587 0.03734,-0.14616 0,-0.0875 -0.02987,-0.14616 -0.03094,-0.0576 -0.08322,-0.0918 -0.112019,-0.0683 -0.283782,-0.0917 -0.03307,-0.01 -0.06614,-0.0181 -0.03307,-0.006 -0.06721,-0.0128 -0.03307,-0.0107 -0.06188,-0.0203 -0.03201,-0.009 -0.05868,-0.0213 -0.05441,-0.0267 -0.08535,-0.0683 -0.03521,-0.0405 -0.03521,-0.10669 0,-0.0629 0.03094,-0.10455 0.0288,-0.0395 0.07468,-0.0661 0.09815,-0.0459 0.217637,-0.0459 0.145092,0 0.238975,0.0661 0.09175,0.0672 0.09388,0.22084 h 0.08321 q -0.0021,-0.1931 -0.116287,-0.27739 -0.11522,-0.0811 -0.299785,-0.0811 -0.148292,-0.002 -0.272047,0.0587 -0.05974,0.0331 -0.09495,0.0875 -0.03841,0.0565 -0.03841,0.14189 0,0.0854 0.03414,0.13976 0.03094,0.0544 0.08748,0.0896 0.05761,0.0331 0.124822,0.0523 0.06721,0.0224 0.139757,0.0373 0.07255,0.0128 0.141891,0.0288 0.07041,0.0149 0.122688,0.0416 0.05654,0.0235 0.08961,0.0694 0.02987,0.0459 0.02987,0.11842 0,0.0694 -0.03414,0.11522 -0.03307,0.048 -0.08748,0.0747 -0.05227,0.0267 -0.114153,0.0352 -0.06294,0.0128 -0.119487,0.0128 -0.153627,0 -0.256044,-0.0875 -0.102418,-0.0854 -0.11522,-0.24005 z" />
      <path
         id="path1795"
         style="font-style:normal;font-variant:normal;font-weight:normal;font-stretch:normal;font-size:2.18491px;font-family:'Helvetica 35 Thin';-inkscape-font-specification:'Helvetica 35 Thin, ';text-align:center;text-anchor:middle;fill:#1a1a1a;stroke-width:0.273113"
         d="m 54.490084,148.93186 h -0.08321 v 0.6081 q 0,0.20911 -0.106685,0.33606 -0.104552,0.13122 -0.297652,0.13336 -0.113086,0 -0.17603,-0.0437 -0.06401,-0.0373 -0.09602,-0.0982 -0.0288,-0.0608 -0.03734,-0.12056 -0.0096,-0.0608 -0.0096,-0.10455 v -0.71052 h -0.08215 v 0.69558 q 0,0.0523 0.0085,0.12589 0.0085,0.0768 0.04374,0.1515 0.03734,0.0736 0.119487,0.12162 0.08108,0.0533 0.22724,0.0555 0.13549,-0.002 0.247509,-0.0725 0.108819,-0.0704 0.154693,-0.19417 h 0.0043 v 0.24004 h 0.08321 z" />
      <path
         id="path1797"
         style="font-style:normal;font-variant:normal;font-weight:normal;font-stretch:normal;font-size:2.18491px;font-family:'Helvetica 35 Thin';-inkscape-font-specification:'Helvetica 35 Thin, ';text-align:center;text-anchor:middle;fill:#1a1a1a;stroke-width:0.273113"
         d="m 55.480122,149.41728 v 0.21016 q 0,0.0213 -0.01067,0.0821 -0.01387,0.0619 -0.05441,0.12909 -0.04161,0.0683 -0.126955,0.11629 -0.08321,0.0544 -0.227239,0.0544 -0.146159,-0.002 -0.218705,-0.0726 -0.07681,-0.0672 -0.07681,-0.17176 0.0021,-0.24111 0.30832,-0.26031 0.124821,-0.0128 0.240041,-0.0267 0.05761,-0.006 0.09922,-0.0213 0.04267,-0.0128 0.06721,-0.0395 z m 0.08321,-0.21871 q -0.0021,-0.16963 -0.122687,-0.23364 -0.117354,-0.0608 -0.270981,-0.0587 -0.404336,0 -0.427807,0.37127 h 0.08322 q 0.02987,-0.29765 0.344592,-0.29979 0.09815,0 0.160028,0.0245 0.06081,0.0288 0.09388,0.0651 0.03521,0.0373 0.04801,0.0725 0.01067,0.0373 0.01067,0.0587 0,0.0683 -0.0064,0.10775 -0.0085,0.0405 -0.04588,0.0672 -0.06614,0.0438 -0.333924,0.0587 -0.03307,0 -0.06828,0.004 -0.03521,0.007 -0.07148,0.016 -0.07255,0.0149 -0.13549,0.0523 -0.06188,0.0352 -0.09922,0.096 -0.03841,0.0651 -0.03841,0.1643 0.0021,0.1739 0.108818,0.24431 0.104552,0.0725 0.266713,0.0725 0.161094,-0.002 0.27098,-0.0768 0.106685,-0.0726 0.146159,-0.17283 h 0.0043 v 0.0587 q -0.0021,0.0704 0.0288,0.11415 0.0256,0.0501 0.121621,0.0501 0.03307,0 0.06828,-0.009 v -0.0704 q -0.03947,0.006 -0.06188,0.006 -0.05228,0 -0.06294,-0.0437 -0.0128,-0.0405 -0.01067,-0.0918 z" />
      <path
         id="path1799"
         style="font-style:normal;font-variant:normal;font-weight:normal;font-stretch:normal;font-size:2.18491px;font-family:'Helvetica 35 Thin';-inkscape-font-specification:'Helvetica 35 Thin, ';text-align:center;text-anchor:middle;fill:#1a1a1a;stroke-width:0.273113"
         d="m 55.847118,148.49552 v 1.55973 h 0.08321 v -1.55973 z" />
      <path
         id="path1801"
         style="font-style:normal;font-variant:normal;font-weight:normal;font-stretch:normal;font-size:2.18491px;font-family:'Helvetica 35 Thin';-inkscape-font-specification:'Helvetica 35 Thin, ';text-align:center;text-anchor:middle;fill:#1a1a1a;stroke-width:0.273113"
         d="m 56.297329,150.05525 v -1.12339 h -0.08321 v 1.12339 z m 0,-1.33463 v -0.2251 h -0.08321 v 0.2251 z" />
      <path
         id="path1803"
         style="font-style:normal;font-variant:normal;font-weight:normal;font-stretch:normal;font-size:2.18491px;font-family:'Helvetica 35 Thin';-inkscape-font-specification:'Helvetica 35 Thin, ';text-align:center;text-anchor:middle;fill:#1a1a1a;stroke-width:0.273113"
         d="m 56.559774,149.98271 0.75533,-0.9719 v -0.0789 h -0.796937 v 0.0725 h 0.69452 l -0.754264,0.97191 v 0.0789 h 0.891887 v -0.0725 z" />
      <path
         id="path1805"
         style="font-style:normal;font-variant:normal;font-weight:normal;font-stretch:normal;font-size:2.18491px;font-family:'Helvetica 35 Thin';-inkscape-font-specification:'Helvetica 35 Thin, ';text-align:center;text-anchor:middle;fill:#1a1a1a;stroke-width:0.273113"
         d="m 58.236864,149.41728 v 0.21016 q 0,0.0213 -0.01067,0.0821 -0.01387,0.0619 -0.05441,0.12909 -0.04161,0.0683 -0.126956,0.11629 -0.08321,0.0544 -0.227239,0.0544 -0.146158,-0.002 -0.218704,-0.0726 -0.07681,-0.0672 -0.07681,-0.17176 0.0021,-0.24111 0.308319,-0.26031 0.124822,-0.0128 0.240042,-0.0267 0.05761,-0.006 0.09922,-0.0213 0.04267,-0.0128 0.06721,-0.0395 z m 0.08321,-0.21871 q -0.0021,-0.16963 -0.122688,-0.23364 -0.117354,-0.0608 -0.27098,-0.0587 -0.404336,0 -0.427807,0.37127 h 0.08321 q 0.02987,-0.29765 0.344593,-0.29979 0.09815,0 0.160028,0.0245 0.06081,0.0288 0.09388,0.0651 0.03521,0.0373 0.04801,0.0725 0.01067,0.0373 0.01067,0.0587 0,0.0683 -0.0064,0.10775 -0.0085,0.0405 -0.04587,0.0672 -0.06615,0.0438 -0.333925,0.0587 -0.03307,0 -0.06828,0.004 -0.03521,0.007 -0.07148,0.016 -0.07255,0.0149 -0.13549,0.0523 -0.06188,0.0352 -0.09922,0.096 -0.03841,0.0651 -0.03841,0.1643 0.0021,0.1739 0.108819,0.24431 0.104551,0.0725 0.266713,0.0725 0.161094,-0.002 0.27098,-0.0768 0.106685,-0.0726 0.146158,-0.17283 h 0.0043 v 0.0587 q -0.0021,0.0704 0.0288,0.11415 0.0256,0.0501 0.121621,0.0501 0.03307,0 0.06828,-0.009 v -0.0704 q -0.03947,0.006 -0.06188,0.006 -0.05228,0 -0.06294,-0.0437 -0.0128,-0.0405 -0.01067,-0.0918 z" />
      <path
         id="path1807"
         style="font-style:normal;font-variant:normal;font-weight:normal;font-stretch:normal;font-size:2.18491px;font-family:'Helvetica 35 Thin';-inkscape-font-specification:'Helvetica 35 Thin, ';text-align:center;text-anchor:middle;fill:#1a1a1a;stroke-width:0.273113"
         d="M 58.997528,148.93186 H 58.752152 V 148.583 h -0.08215 v 0.34886 h -0.208036 v 0.0725 h 0.208036 v 0.78414 q -0.0032,0.0939 0.02347,0.14829 0.02667,0.0555 0.07255,0.0811 0.04801,0.0267 0.106685,0.0331 0.05868,0.009 0.122688,0.004 v -0.0725 q -0.11842,0.007 -0.179231,-0.0277 -0.06401,-0.0352 -0.06401,-0.16643 v -0.78414 h 0.245376 z" />
      <path
         id="path1809"
         style="font-style:normal;font-variant:normal;font-weight:normal;font-stretch:normal;font-size:2.18491px;font-family:'Helvetica 35 Thin';-inkscape-font-specification:'Helvetica 35 Thin, ';text-align:center;text-anchor:middle;fill:#1a1a1a;stroke-width:0.273113"
         d="m 59.252506,150.05525 v -1.12339 h -0.08321 v 1.12339 z m 0,-1.33463 v -0.2251 h -0.08321 v 0.2251 z" />
      <path
         id="path1811"
         style="font-style:normal;font-variant:normal;font-weight:normal;font-stretch:normal;font-size:2.18491px;font-family:'Helvetica 35 Thin';-inkscape-font-specification:'Helvetica 35 Thin, ';text-align:center;text-anchor:middle;fill:#1a1a1a;stroke-width:0.273113"
         d="m 59.464809,149.49409 q 0,0.24431 0.134424,0.41287 0.133356,0.16963 0.380865,0.17496 0.25071,-0.005 0.381933,-0.17496 0.133356,-0.16856 0.133356,-0.41287 0,-0.24751 -0.133356,-0.41501 -0.131223,-0.16856 -0.381933,-0.17283 -0.247509,0.004 -0.380865,0.17283 -0.134424,0.1675 -0.134424,0.41501 z m 0.08215,0 q 0,-0.21017 0.114153,-0.3606 0.108819,-0.15042 0.318988,-0.15576 0.214437,0.005 0.323256,0.15576 0.108819,0.15043 0.108819,0.3606 0,0.20697 -0.108819,0.35633 -0.108819,0.15469 -0.323256,0.15896 -0.210169,-0.004 -0.318988,-0.15896 -0.114153,-0.14936 -0.114153,-0.35633 z" />
      <path
         id="path1813"
         style="font-style:normal;font-variant:normal;font-weight:normal;font-stretch:normal;font-size:2.18491px;font-family:'Helvetica 35 Thin';-inkscape-font-specification:'Helvetica 35 Thin, ';text-align:center;text-anchor:middle;fill:#1a1a1a;stroke-width:0.273113"
         d="m 60.690619,150.05525 h 0.08215 v -0.60704 q 0,-0.21017 0.109886,-0.33925 0.106685,-0.12909 0.29445,-0.13123 0.114153,0.002 0.181365,0.0395 0.06614,0.0373 0.09388,0.0982 0.03094,0.0597 0.03947,0.12055 0.0043,0.0629 0.0043,0.10882 v 0.71052 h 0.08321 v -0.69452 q 0,-0.0544 -0.0043,-0.13122 -0.0085,-0.0747 -0.04587,-0.14829 -0.03521,-0.0747 -0.11842,-0.12482 -0.08215,-0.048 -0.231507,-0.0502 -0.133356,0 -0.244309,0.0672 -0.110952,0.0704 -0.156827,0.1995 h -0.0053 v -0.24111 h -0.08215 z" />
      <path
         id="path1815"
         style="font-style:normal;font-variant:normal;font-weight:normal;font-stretch:normal;font-size:2.18491px;font-family:'Helvetica 35 Thin';-inkscape-font-specification:'Helvetica 35 Thin, ';text-align:center;text-anchor:middle;fill:#1a1a1a;stroke-width:0.273113"
         d="m 62.826454,148.57873 v 1.47652 h 0.09602 v -1.47652 h 0.551562 v -0.0832 h -1.19594 v 0.0832 z" />
      <path
         id="path1817"
         style="font-style:normal;font-variant:normal;font-weight:normal;font-stretch:normal;font-size:2.18491px;font-family:'Helvetica 35 Thin';-inkscape-font-specification:'Helvetica 35 Thin, ';text-align:center;text-anchor:middle;fill:#1a1a1a;stroke-width:0.273113"
         d="m 63.312939,149.49409 q 0,0.24431 0.134423,0.41287 0.133356,0.16963 0.380865,0.17496 0.25071,-0.005 0.381933,-0.17496 0.133356,-0.16856 0.133356,-0.41287 0,-0.24751 -0.133356,-0.41501 -0.131223,-0.16856 -0.381933,-0.17283 -0.247509,0.004 -0.380865,0.17283 -0.134423,0.1675 -0.134423,0.41501 z m 0.08215,0 q 0,-0.21017 0.114153,-0.3606 0.108819,-0.15042 0.318988,-0.15576 0.214437,0.005 0.323256,0.15576 0.108819,0.15043 0.108819,0.3606 0,0.20697 -0.108819,0.35633 -0.108819,0.15469 -0.323256,0.15896 -0.210169,-0.004 -0.318988,-0.15896 -0.114153,-0.14936 -0.114153,-0.35633 z" />
      <path
         id="path1819"
         style="font-style:normal;font-variant:normal;font-weight:normal;font-stretch:normal;font-size:2.18491px;font-family:'Helvetica 35 Thin';-inkscape-font-specification:'Helvetica 35 Thin, ';text-align:center;text-anchor:middle;fill:#1a1a1a;stroke-width:0.273113"
         d="m 64.486475,149.49409 q 0,0.24431 0.134423,0.41287 0.133356,0.16963 0.380866,0.17496 0.25071,-0.005 0.381932,-0.17496 0.133357,-0.16856 0.133357,-0.41287 0,-0.24751 -0.133357,-0.41501 -0.131222,-0.16856 -0.381932,-0.17283 -0.24751,0.004 -0.380866,0.17283 -0.134423,0.1675 -0.134423,0.41501 z m 0.08215,0 q 0,-0.21017 0.114153,-0.3606 0.108819,-0.15042 0.318989,-0.15576 0.214437,0.005 0.323256,0.15576 0.108818,0.15043 0.108818,0.3606 0,0.20697 -0.108818,0.35633 -0.108819,0.15469 -0.323256,0.15896 -0.21017,-0.004 -0.318989,-0.15896 -0.114153,-0.14936 -0.114153,-0.35633 z" />
      <path
         id="path1821"
         style="font-style:normal;font-variant:normal;font-weight:normal;font-stretch:normal;font-size:2.18491px;font-family:'Helvetica 35 Thin';-inkscape-font-specification:'Helvetica 35 Thin, ';text-align:center;text-anchor:middle;fill:#1a1a1a;stroke-width:0.273113"
         d="m 65.73149,148.49552 v 1.55973 h 0.08322 v -1.55973 z" />
    </g>
  </g>
</svg>
